<svg width="292" height="292" viewBox="0 0 292 292" fill="none" xmlns="http://www.w3.org/2000/svg">
<path fill-rule="evenodd" clip-rule="evenodd" d="M237.091 239.091L208.707 267.474L208 266.767L236.384 238.384L208.707 210.707L209.414 210L237.091 237.676L264.767 210L265.474 210.707L237.798 238.384L266.181 266.767L265.474 267.474L237.091 239.091Z" fill="#aaa"/>
<path d="M208.707 267.474L206.939 269.242L208.707 271.01L210.475 269.242L208.707 267.474ZM237.091 239.091L238.858 237.323L237.091 235.555L235.323 237.323L237.091 239.091ZM208 266.767L206.232 264.999L204.464 266.767L206.232 268.535L208 266.767ZM236.384 238.384L238.151 240.151L239.919 238.384L238.151 236.616L236.384 238.384ZM208.707 210.707L206.939 208.939L205.172 210.707L206.939 212.475L208.707 210.707ZM209.414 210L211.182 208.232L209.414 206.464L207.646 208.232L209.414 210ZM237.091 237.676L235.323 239.444L237.091 241.212L238.858 239.444L237.091 237.676ZM264.767 210L266.535 208.232L264.767 206.464L262.999 208.232L264.767 210ZM265.474 210.707L267.242 212.475L269.01 210.707L267.242 208.939L265.474 210.707ZM237.798 238.384L236.03 236.616L234.262 238.384L236.03 240.151L237.798 238.384ZM266.181 266.767L267.949 268.535L269.717 266.767L267.949 264.999L266.181 266.767ZM265.474 267.474L263.706 269.242L265.474 271.01L267.242 269.242L265.474 267.474ZM210.475 269.242L238.858 240.858L235.323 237.323L206.939 265.706L210.475 269.242ZM206.232 268.535L206.939 269.242L210.475 265.706L209.768 264.999L206.232 268.535ZM234.616 236.616L206.232 264.999L209.768 268.535L238.151 240.151L234.616 236.616ZM238.151 236.616L210.475 208.939L206.939 212.475L234.616 240.151L238.151 236.616ZM210.475 212.475L211.182 211.768L207.646 208.232L206.939 208.939L210.475 212.475ZM207.646 211.768L235.323 239.444L238.858 235.909L211.182 208.232L207.646 211.768ZM262.999 208.232L235.323 235.909L238.858 239.444L266.535 211.768L262.999 208.232ZM267.242 208.939L266.535 208.232L262.999 211.768L263.706 212.475L267.242 208.939ZM239.565 240.151L267.242 212.475L263.706 208.939L236.03 236.616L239.565 240.151ZM236.03 240.151L264.413 268.535L267.949 264.999L239.565 236.616L236.03 240.151ZM264.413 264.999L263.706 265.706L267.242 269.242L267.949 268.535L264.413 264.999ZM267.242 265.706L238.858 237.323L235.323 240.858L263.706 269.242L267.242 265.706Z" fill="#aaa"/>
<path fill-rule="evenodd" clip-rule="evenodd" d="M215.214 114.214L196.707 132.72L196 132.013L214.507 113.507L196.707 95.7071L197.414 95L215.214 112.799L233.013 95L233.72 95.7071L215.921 113.507L234.427 132.013L233.72 132.72L215.214 114.214Z" fill="#aaa"/>
<path d="M196.707 132.72L194.939 134.488L196.707 136.256L198.475 134.488L196.707 132.72ZM215.214 114.214L216.981 112.446L215.214 110.678L213.446 112.446L215.214 114.214ZM196 132.013L194.232 130.245L192.464 132.013L194.232 133.781L196 132.013ZM214.507 113.507L216.274 115.274L218.042 113.507L216.274 111.739L214.507 113.507ZM196.707 95.7071L194.939 93.9393L193.172 95.7071L194.939 97.4749L196.707 95.7071ZM197.414 95L199.182 93.2322L197.414 91.4645L195.646 93.2322L197.414 95ZM215.214 112.799L213.446 114.567L215.214 116.335L216.981 114.567L215.214 112.799ZM233.013 95L234.781 93.2322L233.013 91.4645L231.245 93.2322L233.013 95ZM233.72 95.7071L235.488 97.4749L237.256 95.7071L235.488 93.9393L233.72 95.7071ZM215.921 113.507L214.153 111.739L212.385 113.507L214.153 115.274L215.921 113.507ZM234.427 132.013L236.195 133.781L237.963 132.013L236.195 130.245L234.427 132.013ZM233.72 132.72L231.952 134.488L233.72 136.256L235.488 134.488L233.72 132.72ZM198.475 134.488L216.981 115.981L213.446 112.446L194.939 130.952L198.475 134.488ZM194.232 133.781L194.939 134.488L198.475 130.952L197.768 130.245L194.232 133.781ZM212.739 111.739L194.232 130.245L197.768 133.781L216.274 115.274L212.739 111.739ZM216.274 111.739L198.475 93.9393L194.939 97.4749L212.739 115.274L216.274 111.739ZM198.475 97.4749L199.182 96.7678L195.646 93.2322L194.939 93.9393L198.475 97.4749ZM195.646 96.7678L213.446 114.567L216.981 111.032L199.182 93.2322L195.646 96.7678ZM231.245 93.2322L213.446 111.032L216.981 114.567L234.781 96.7678L231.245 93.2322ZM235.488 93.9393L234.781 93.2322L231.245 96.7678L231.952 97.4749L235.488 93.9393ZM217.689 115.274L235.488 97.4749L231.952 93.9393L214.153 111.739L217.689 115.274ZM214.153 115.274L232.66 133.781L236.195 130.245L217.689 111.739L214.153 115.274ZM232.66 130.245L231.952 130.952L235.488 134.488L236.195 133.781L232.66 130.245ZM235.488 130.952L216.981 112.446L213.446 115.981L231.952 134.488L235.488 130.952Z" fill="#aaa"/>
<path fill-rule="evenodd" clip-rule="evenodd" d="M167.282 34.2815L152.707 48.8559L152 48.1488L166.574 33.5744L152.707 19.7071L153.414 19L167.282 32.8673L181.149 19L181.856 19.7071L167.989 33.5744L182.563 48.1488L181.856 48.8559L167.282 34.2815Z" fill="#aaa"/>
<path d="M152.707 48.8559L151.646 49.9166L152.707 50.9772L153.768 49.9166L152.707 48.8559ZM167.282 34.2815L168.342 33.2209L167.282 32.1602L166.221 33.2209L167.282 34.2815ZM152 48.1488L150.939 47.0882L149.879 48.1488L150.939 49.2095L152 48.1488ZM166.574 33.5744L167.635 34.6351L168.696 33.5744L167.635 32.5138L166.574 33.5744ZM152.707 19.7071L151.646 18.6464L150.586 19.7071L151.646 20.7678L152.707 19.7071ZM153.414 19L154.475 17.9393L153.414 16.8787L152.354 17.9393L153.414 19ZM167.282 32.8673L166.221 33.928L167.282 34.9886L168.342 33.928L167.282 32.8673ZM181.149 19L182.209 17.9393L181.149 16.8787L180.088 17.9393L181.149 19ZM181.856 19.7071L182.917 20.7678L183.977 19.7071L182.917 18.6464L181.856 19.7071ZM167.989 33.5744L166.928 32.5138L165.867 33.5744L166.928 34.6351L167.989 33.5744ZM182.563 48.1488L183.624 49.2095L184.684 48.1488L183.624 47.0882L182.563 48.1488ZM181.856 48.8559L180.795 49.9166L181.856 50.9772L182.917 49.9166L181.856 48.8559ZM153.768 49.9166L168.342 35.3422L166.221 33.2209L151.646 47.7953L153.768 49.9166ZM150.939 49.2095L151.646 49.9166L153.768 47.7953L153.061 47.0882L150.939 49.2095ZM165.514 32.5138L150.939 47.0882L153.061 49.2095L167.635 34.6351L165.514 32.5138ZM167.635 32.5138L153.768 18.6464L151.646 20.7678L165.514 34.6351L167.635 32.5138ZM153.768 20.7678L154.475 20.0607L152.354 17.9393L151.646 18.6464L153.768 20.7678ZM152.354 20.0607L166.221 33.928L168.342 31.8066L154.475 17.9393L152.354 20.0607ZM180.088 17.9393L166.221 31.8066L168.342 33.928L182.209 20.0607L180.088 17.9393ZM182.917 18.6464L182.209 17.9393L180.088 20.0607L180.795 20.7678L182.917 18.6464ZM169.049 34.6351L182.917 20.7678L180.795 18.6464L166.928 32.5138L169.049 34.6351ZM166.928 34.6351L181.502 49.2095L183.624 47.0882L169.049 32.5138L166.928 34.6351ZM181.502 47.0882L180.795 47.7953L182.917 49.9166L183.624 49.2095L181.502 47.0882ZM182.917 47.7953L168.342 33.2209L166.221 35.3422L180.795 49.9166L182.917 47.7953Z" fill="#aaa"/>
<path fill-rule="evenodd" clip-rule="evenodd" d="M41.2815 246.282L26.7071 260.856L26 260.149L40.5744 245.574L26.7071 231.707L27.4142 231L41.2815 244.867L55.1488 231L55.8559 231.707L41.9886 245.574L56.563 260.149L55.8559 260.856L41.2815 246.282Z" fill="#aaa"/>
<path d="M26.7071 260.856L25.6464 261.917L26.7071 262.977L27.7678 261.917L26.7071 260.856ZM41.2815 246.282L42.3422 245.221L41.2815 244.16L40.2208 245.221L41.2815 246.282ZM26 260.149L24.9393 259.088L23.8787 260.149L24.9393 261.209L26 260.149ZM40.5744 245.574L41.6351 246.635L42.6957 245.574L41.6351 244.514L40.5744 245.574ZM26.7071 231.707L25.6464 230.646L24.5858 231.707L25.6464 232.768L26.7071 231.707ZM27.4142 231L28.4749 229.939L27.4142 228.879L26.3535 229.939L27.4142 231ZM41.2815 244.867L40.2208 245.928L41.2815 246.989L42.3422 245.928L41.2815 244.867ZM55.1488 231L56.2095 229.939L55.1488 228.879L54.0882 229.939L55.1488 231ZM55.8559 231.707L56.9166 232.768L57.9772 231.707L56.9166 230.646L55.8559 231.707ZM41.9886 245.574L40.928 244.514L39.8673 245.574L40.928 246.635L41.9886 245.574ZM56.563 260.149L57.6237 261.209L58.6843 260.149L57.6237 259.088L56.563 260.149ZM55.8559 260.856L54.7952 261.917L55.8559 262.977L56.9166 261.917L55.8559 260.856ZM27.7678 261.917L42.3422 247.342L40.2208 245.221L25.6464 259.795L27.7678 261.917ZM24.9393 261.209L25.6464 261.917L27.7678 259.795L27.0607 259.088L24.9393 261.209ZM39.5137 244.514L24.9393 259.088L27.0607 261.209L41.6351 246.635L39.5137 244.514ZM41.6351 244.514L27.7678 230.646L25.6464 232.768L39.5137 246.635L41.6351 244.514ZM27.7678 232.768L28.4749 232.061L26.3535 229.939L25.6464 230.646L27.7678 232.768ZM26.3535 232.061L40.2208 245.928L42.3422 243.807L28.4749 229.939L26.3535 232.061ZM54.0882 229.939L40.2208 243.807L42.3422 245.928L56.2095 232.061L54.0882 229.939ZM56.9166 230.646L56.2095 229.939L54.0882 232.061L54.7953 232.768L56.9166 230.646ZM43.0493 246.635L56.9166 232.768L54.7953 230.646L40.928 244.514L43.0493 246.635ZM40.928 246.635L55.5024 261.209L57.6237 259.088L43.0493 244.514L40.928 246.635ZM55.5024 259.088L54.7952 259.795L56.9166 261.917L57.6237 261.209L55.5024 259.088ZM56.9166 259.795L42.3422 245.221L40.2208 247.342L54.7952 261.917L56.9166 259.795Z" fill="#aaa"/>
<path fill-rule="evenodd" clip-rule="evenodd" d="M75.6541 153.305L68.7071 160.252L68 159.545L74.947 152.598L68.7071 146.358L69.4142 145.651L75.6541 151.891L81.894 145.651L82.6012 146.358L76.3612 152.598L83.3083 159.545L82.6012 160.252L75.6541 153.305Z" fill="#aaa"/>
<path d="M68.7071 160.252L68 160.959L68.7071 161.666L69.4142 160.959L68.7071 160.252ZM75.6541 153.305L76.3612 152.598L75.6541 151.891L74.947 152.598L75.6541 153.305ZM68 159.545L67.2929 158.838L66.5858 159.545L67.2929 160.252L68 159.545ZM74.947 152.598L75.6541 153.305L76.3612 152.598L75.6541 151.891L74.947 152.598ZM68.7071 146.358L68 145.651L67.2929 146.358L68 147.065L68.7071 146.358ZM69.4142 145.651L70.1213 144.944L69.4142 144.237L68.7071 144.944L69.4142 145.651ZM75.6541 151.891L74.947 152.598L75.6541 153.305L76.3612 152.598L75.6541 151.891ZM81.894 145.651L82.6012 144.944L81.894 144.237L81.1869 144.944L81.894 145.651ZM82.6012 146.358L83.3083 147.065L84.0154 146.358L83.3083 145.651L82.6012 146.358ZM76.3612 152.598L75.6541 151.891L74.947 152.598L75.6541 153.305L76.3612 152.598ZM83.3083 159.545L84.0154 160.252L84.7225 159.545L84.0154 158.838L83.3083 159.545ZM82.6012 160.252L81.894 160.959L82.6012 161.666L83.3083 160.959L82.6012 160.252ZM69.4142 160.959L76.3612 154.012L74.947 152.598L68 159.545L69.4142 160.959ZM67.2929 160.252L68 160.959L69.4142 159.545L68.7071 158.838L67.2929 160.252ZM74.2399 151.891L67.2929 158.838L68.7071 160.252L75.6541 153.305L74.2399 151.891ZM75.6541 151.891L69.4142 145.651L68 147.065L74.2399 153.305L75.6541 151.891ZM69.4142 147.065L70.1213 146.358L68.7071 144.944L68 145.651L69.4142 147.065ZM68.7071 146.358L74.947 152.598L76.3612 151.184L70.1213 144.944L68.7071 146.358ZM81.1869 144.944L74.947 151.184L76.3612 152.598L82.6012 146.358L81.1869 144.944ZM83.3083 145.651L82.6012 144.944L81.1869 146.358L81.894 147.065L83.3083 145.651ZM77.0683 153.305L83.3083 147.065L81.894 145.651L75.6541 151.891L77.0683 153.305ZM75.6541 153.305L82.6012 160.252L84.0154 158.838L77.0683 151.891L75.6541 153.305ZM82.6012 158.838L81.894 159.545L83.3083 160.959L84.0154 160.252L82.6012 158.838ZM83.3083 159.545L76.3612 152.598L74.947 154.012L81.894 160.959L83.3083 159.545Z" fill="#aaa"/>
<path fill-rule="evenodd" clip-rule="evenodd" d="M111.654 71.6541L104.707 78.6012L104 77.894L110.947 70.947L104.707 64.7071L105.414 64L111.654 70.2399L117.894 64L118.601 64.7071L112.361 70.947L119.308 77.894L118.601 78.6012L111.654 71.6541Z" fill="#aaa"/>
<path d="M104.707 78.6012L104 79.3083L104.707 80.0154L105.414 79.3083L104.707 78.6012ZM111.654 71.6541L112.361 70.947L111.654 70.2399L110.947 70.947L111.654 71.6541ZM104 77.894L103.293 77.1869L102.586 77.894L103.293 78.6012L104 77.894ZM110.947 70.947L111.654 71.6541L112.361 70.947L111.654 70.2399L110.947 70.947ZM104.707 64.7071L104 64L103.293 64.7071L104 65.4142L104.707 64.7071ZM105.414 64L106.121 63.2929L105.414 62.5858L104.707 63.2929L105.414 64ZM111.654 70.2399L110.947 70.947L111.654 71.6541L112.361 70.947L111.654 70.2399ZM117.894 64L118.601 63.2929L117.894 62.5858L117.187 63.2929L117.894 64ZM118.601 64.7071L119.308 65.4142L120.015 64.7071L119.308 64L118.601 64.7071ZM112.361 70.947L111.654 70.2399L110.947 70.947L111.654 71.6541L112.361 70.947ZM119.308 77.894L120.015 78.6012L120.722 77.894L120.015 77.1869L119.308 77.894ZM118.601 78.6012L117.894 79.3083L118.601 80.0154L119.308 79.3083L118.601 78.6012ZM105.414 79.3083L112.361 72.3612L110.947 70.947L104 77.894L105.414 79.3083ZM103.293 78.6012L104 79.3083L105.414 77.894L104.707 77.1869L103.293 78.6012ZM110.24 70.2399L103.293 77.1869L104.707 78.6012L111.654 71.6541L110.24 70.2399ZM111.654 70.2399L105.414 64L104 65.4142L110.24 71.6541L111.654 70.2399ZM105.414 65.4142L106.121 64.7071L104.707 63.2929L104 64L105.414 65.4142ZM104.707 64.7071L110.947 70.947L112.361 69.5328L106.121 63.2929L104.707 64.7071ZM117.187 63.2929L110.947 69.5328L112.361 70.947L118.601 64.7071L117.187 63.2929ZM119.308 64L118.601 63.2929L117.187 64.7071L117.894 65.4142L119.308 64ZM113.068 71.6541L119.308 65.4142L117.894 64L111.654 70.2399L113.068 71.6541ZM111.654 71.6541L118.601 78.6012L120.015 77.1869L113.068 70.2399L111.654 71.6541ZM118.601 77.1869L117.894 77.894L119.308 79.3083L120.015 78.6012L118.601 77.1869ZM119.308 77.894L112.361 70.947L110.947 72.3612L117.894 79.3083L119.308 77.894Z" fill="#aaa"/>
<path fill-rule="evenodd" clip-rule="evenodd" d="M157.654 253.654L150.707 260.601L150 259.894L156.947 252.947L150.707 246.707L151.414 246L157.654 252.24L163.894 246L164.601 246.707L158.361 252.947L165.308 259.894L164.601 260.601L157.654 253.654Z" fill="#aaa"/>
<path d="M150.707 260.601L150 261.308L150.707 262.015L151.414 261.308L150.707 260.601ZM157.654 253.654L158.361 252.947L157.654 252.24L156.947 252.947L157.654 253.654ZM150 259.894L149.293 259.187L148.586 259.894L149.293 260.601L150 259.894ZM156.947 252.947L157.654 253.654L158.361 252.947L157.654 252.24L156.947 252.947ZM150.707 246.707L150 246L149.293 246.707L150 247.414L150.707 246.707ZM151.414 246L152.121 245.293L151.414 244.586L150.707 245.293L151.414 246ZM157.654 252.24L156.947 252.947L157.654 253.654L158.361 252.947L157.654 252.24ZM163.894 246L164.601 245.293L163.894 244.586L163.187 245.293L163.894 246ZM164.601 246.707L165.308 247.414L166.015 246.707L165.308 246L164.601 246.707ZM158.361 252.947L157.654 252.24L156.947 252.947L157.654 253.654L158.361 252.947ZM165.308 259.894L166.015 260.601L166.722 259.894L166.015 259.187L165.308 259.894ZM164.601 260.601L163.894 261.308L164.601 262.015L165.308 261.308L164.601 260.601ZM151.414 261.308L158.361 254.361L156.947 252.947L150 259.894L151.414 261.308ZM149.293 260.601L150 261.308L151.414 259.894L150.707 259.187L149.293 260.601ZM156.24 252.24L149.293 259.187L150.707 260.601L157.654 253.654L156.24 252.24ZM157.654 252.24L151.414 246L150 247.414L156.24 253.654L157.654 252.24ZM151.414 247.414L152.121 246.707L150.707 245.293L150 246L151.414 247.414ZM150.707 246.707L156.947 252.947L158.361 251.533L152.121 245.293L150.707 246.707ZM163.187 245.293L156.947 251.533L158.361 252.947L164.601 246.707L163.187 245.293ZM165.308 246L164.601 245.293L163.187 246.707L163.894 247.414L165.308 246ZM159.068 253.654L165.308 247.414L163.894 246L157.654 252.24L159.068 253.654ZM157.654 253.654L164.601 260.601L166.015 259.187L159.068 252.24L157.654 253.654ZM164.601 259.187L163.894 259.894L165.308 261.308L166.015 260.601L164.601 259.187ZM165.308 259.894L158.361 252.947L156.947 254.361L163.894 261.308L165.308 259.894Z" fill="#aaa"/>
<circle cx="53" cy="46" r="31" stroke="#aaa" stroke-width="4"/>
<circle cx="139.5" cy="151.5" r="24.5" stroke="#aaa" stroke-width="4"/>
<circle cx="245" cy="158" r="9.5" stroke="#aaa" stroke-width="3"/>
<circle cx="43" cy="169" r="15.5" stroke="#aaa" stroke-width="3"/>
<circle cx="167" cy="210" r="9.5" stroke="#aaa" stroke-width="3"/>
<circle cx="110.145" cy="255" r="17.5" stroke="#aaa" stroke-width="5"/>
<circle cx="255" cy="53" r="11.5" stroke="#aaa" stroke-width="5"/>
</svg>
