<svg width="245" height="253" viewBox="0 0 245 253" fill="none" xmlns="http://www.w3.org/2000/svg">
<path fill-rule="evenodd" clip-rule="evenodd" d="M41.1362 198.361C40.8427 196.342 42.1113 195.502 43.7538 195.121C49.9458 193.69 58.241 197.663 61.0902 203.406C61.6093 204.451 62.0184 205.559 62.3971 206.664C64.6816 213.346 62.6196 219.536 56.8681 223.573C53.7654 225.751 50.4175 227.234 46.6156 227.551C40.0847 228.094 34.7876 224.73 32.4891 218.625C32.0777 217.529 31.7455 216.386 31.1957 215.361C29.0146 211.298 29.6357 207.573 32.0392 203.78C33.1542 202.02 34.5231 200.784 36.309 199.971C37.8843 199.253 39.5687 198.772 41.1974 198.205C41.6059 200.677 40.1301 202.227 38.6117 203.804C34.3862 208.196 34.1884 213.158 36.6387 218.462C36.8025 218.819 36.9798 219.169 37.1381 219.528C38.598 222.835 41.2313 224.08 44.718 223.904C48.641 223.705 51.9838 221.889 54.7679 219.464C58.2918 216.392 60.9188 211.445 57.9203 205.113C55.8157 200.669 51.7414 196.805 45.1106 198.232C43.7886 198.517 42.4889 199.18 41.1362 198.361Z" fill="#ddd"/>
<path fill-rule="evenodd" clip-rule="evenodd" d="M22.709 228.426C22.2839 228.599 21.0793 229.27 19.7913 229.532C19.2102 229.651 18.3378 229.091 17.8221 228.601C17.172 227.985 17.4658 227.035 17.9839 226.537C19.3724 225.205 20.8325 223.919 22.4039 222.813C23.9651 221.714 26.4732 223.176 26.7335 225.17C26.8248 225.858 26.4915 226.313 26.0231 226.618C25.2192 227.141 24.3394 227.549 22.709 228.426Z" fill="#ddd"/>
<path fill-rule="evenodd" clip-rule="evenodd" d="M32.2298 237.444C31.6582 237.601 31.2799 237.802 30.9111 237.785C30.3494 237.758 29.7183 237.709 29.2584 237.434C28.6867 237.091 28.7722 236.369 29.0338 235.866C29.6621 234.665 30.3027 233.45 31.1074 232.366C32.318 230.737 34.422 231.166 35.1759 233.181C35.3543 233.661 35.3704 234.478 35.0831 234.801C34.1845 235.811 33.1043 236.656 32.2298 237.444Z" fill="#ddd"/>
<path fill-rule="evenodd" clip-rule="evenodd" d="M70.0752 199.822C69.0782 200.201 68.0188 200.712 66.9021 200.998C65.8415 201.269 64.9387 200.776 64.5405 199.754C64.2219 198.936 64.6404 198.209 65.3702 197.795C67.2408 196.73 69.2101 195.862 71.3454 195.535C71.759 195.47 72.3672 195.969 72.7142 196.36C73.1851 196.891 72.8331 197.529 72.4384 197.914C71.7488 198.59 70.9369 199.14 70.0752 199.822Z" fill="#ddd"/>
<path fill-rule="evenodd" clip-rule="evenodd" d="M36.4418 187.675C36.1663 187.163 35.8747 186.659 35.6209 186.138C35.1965 185.269 34.6321 184.196 35.6921 183.593C36.5719 183.092 37.554 183.724 38.2923 184.408C39.4269 185.458 40.6634 186.446 41.1483 188.001C41.4437 188.944 41.5927 189.964 40.5597 190.553C39.6309 191.084 38.6103 190.873 37.9077 190.136C37.2568 189.457 36.8353 188.557 36.314 187.753C36.3572 187.727 36.3997 187.7 36.4418 187.675Z" fill="#ddd"/>
<path fill-rule="evenodd" clip-rule="evenodd" d="M74.9287 211.656C74.9921 212.31 74.6921 212.886 74.1279 213C71.5259 213.524 69.1195 212.763 66.8827 211.529C66.2259 211.167 65.9204 210.237 66.4147 209.472C66.6955 209.041 67.3417 208.44 67.6783 208.52C69.9288 209.055 72.3098 209.276 74.2349 210.752C74.5281 210.979 74.7035 211.356 74.9287 211.656Z" fill="#ddd"/>
<path fill-rule="evenodd" clip-rule="evenodd" d="M69.6637 225.103C69.6566 225.525 69.8447 226.201 69.595 226.609C69.1256 227.376 68.1477 227.348 67.5013 227.003C65.7594 226.075 64.3639 224.72 63.4612 222.926C63.1607 222.328 63.3257 221.695 63.8108 221.377C64.2387 221.095 64.9767 220.864 65.385 221.045C67.2073 221.857 68.5078 223.298 69.6637 225.103Z" fill="#ddd"/>
<path fill-rule="evenodd" clip-rule="evenodd" d="M30.8927 196.294C30.9961 196.926 30.7663 197.414 30.2565 197.784C29.412 198.4 28.4365 198.616 27.4871 198.27C26.3939 197.872 25.3572 197.304 24.3374 196.734C23.3605 196.187 23.3886 194.921 24.3384 194.413C26.582 193.21 29.9115 194.167 30.8927 196.294Z" fill="#ddd"/>
<path fill-rule="evenodd" clip-rule="evenodd" d="M51.6748 182.978C52.0511 183.23 52.6603 183.43 52.9225 183.848C54.0522 185.656 53.7553 187.551 52.7489 189.254C52.1872 190.204 51.037 189.935 50.1377 189.597C49.3866 189.314 48.8104 188.655 48.9167 187.84C49.1396 186.112 49.8795 184.564 51.0053 183.223C51.1102 183.097 51.3564 183.088 51.6748 182.978Z" fill="#ddd"/>
<path fill-rule="evenodd" clip-rule="evenodd" d="M61.0932 232.515C61.1634 232.845 61.3737 233.583 61.4631 234.335C61.5327 234.92 61.3406 235.508 60.7083 235.695C60.3884 235.789 59.8671 235.775 59.6603 235.577C58.2768 234.258 56.7959 232.989 56.0735 231.146C55.8656 230.617 55.8617 229.916 56.4605 229.62C56.9258 229.392 57.6063 229.225 58.0467 229.397C59.3346 229.901 60.2724 230.87 61.0932 232.515Z" fill="#ddd"/>
<path fill-rule="evenodd" clip-rule="evenodd" d="M20.3931 208.35C21.4361 207.836 22.5356 207.195 23.6826 207.504C24.7793 207.8 25.9942 208.451 26.1224 209.715C26.2343 210.834 25.1854 211.275 24.1771 211.423C23.2246 211.563 22.2627 211.647 21.3031 211.733C20.3347 211.82 19.3713 211.816 18.6873 210.967C18.1828 210.337 19.0099 209.085 20.3931 208.35Z" fill="#ddd"/>
<path fill-rule="evenodd" clip-rule="evenodd" d="M44.0583 232.617C44.2402 232.551 44.4252 232.424 44.6048 232.429C46.6088 232.485 48.2944 234.252 48.2201 236.196C48.1832 237.168 47.1358 238.008 46.2238 237.796C44.3142 237.353 42.9272 235.311 43.3532 233.471C43.4275 233.149 43.8147 232.9 44.0583 232.617Z" fill="#ddd"/>
<path fill-rule="evenodd" clip-rule="evenodd" d="M62.2803 187.577C63.2141 187.141 64.3708 187.792 64.6328 188.755C65.2885 191.158 63.0706 193.315 60.6006 192.615C59.7924 192.387 59.4272 191.682 59.5665 190.83C59.8403 189.15 61.0705 188.273 62.2803 187.577Z" fill="#ddd"/>
<path d="M150.912 142.096C158.283 148.903 169.644 149.826 177.96 144.882C178.078 144.812 181.127 143.035 181.327 143.263C181.674 143.659 181.181 145.867 181.103 146.241C176.832 166.725 154.008 177.455 147.181 151.501C146.245 147.943 146.901 143.308 147.964 140.057" stroke="#ddd" stroke-width="3" stroke-linecap="round" stroke-linejoin="round"/>
<path d="M170.675 148.877C169.931 153.905 169.315 159.041 168.027 164.016" stroke="#ddd" stroke-width="3" stroke-linecap="round" stroke-linejoin="round"/>
<path d="M162.861 150.444C161.814 155.056 161.098 159.841 159.804 164.335" stroke="#ddd" stroke-width="3" stroke-linecap="round" stroke-linejoin="round"/>
<path d="M155.963 146.972C154.692 151.834 153.079 156.625 152.05 161.556" stroke="#ddd" stroke-width="3" stroke-linecap="round" stroke-linejoin="round"/>
<path d="M156.107 128.161C158.223 134.496 158.897 135.796 164.225 130.211" stroke="#ddd" stroke-width="3" stroke-linecap="round" stroke-linejoin="round"/>
<path d="M170.866 131.238C172.982 137.572 173.656 138.873 178.984 133.288" stroke="#ddd" stroke-width="3" stroke-linecap="round" stroke-linejoin="round"/>
<path d="M218.999 221.059C219.047 226.841 217.588 232.797 217.588 238.471" stroke="#ddd" stroke-width="3" stroke-linecap="round" stroke-linejoin="round"/>
<path d="M215.471 222.656C219.626 229.364 219.996 223.285 227 222.235" stroke="#ddd" stroke-width="3" stroke-linecap="round" stroke-linejoin="round"/>
<path d="M210.858 230.607C206.087 231.712 201.182 222.403 203.669 218.692C204.139 217.991 206.154 217.472 206.365 217.054C206.886 216.018 204.665 215.229 204.568 214.075C204.26 210.401 206.411 205.886 209.66 203.947C211.449 202.88 214.873 203.65 216.549 204.692C216.941 204.935 218.438 206.965 218.496 206.926C222.82 204.059 231.384 198.569 235.419 204.99C236.807 207.197 234.276 209.071 234.671 210.054C235.292 211.598 241.275 213.432 242.758 218.841C244.8 226.286 233.429 235.452 226.733 230.458" stroke="#ddd" stroke-width="3" stroke-linecap="round" stroke-linejoin="round"/>
<path d="M218.714 132.954C220.228 122.236 208.907 116.209 208.048 104.4C207.638 98.7579 214.21 93.479 219.597 94.8436C229.44 97.3356 231.289 108.816 235.892 114.521C237.227 116.176 241.861 118.365 240.336 121.194C237.925 125.67 234.341 119.727 231.649 120.678C229.96 121.274 234.505 127.391 230.615 128.241C229.09 128.575 228.324 124.605 226.248 125.155C224.245 125.685 228.735 133.907 223.561 132.597" stroke="#ddd" stroke-width="2" stroke-linecap="round" stroke-linejoin="round"/>
<path d="M222.179 107.523C222.37 108.025 222.62 108.506 222.8 108.99" stroke="#ddd" stroke-width="2" stroke-linecap="round" stroke-linejoin="round"/>
<path d="M219.789 110.578C219.579 110.226 219.37 109.875 219.161 109.523" stroke="#ddd" stroke-width="2" stroke-linecap="round" stroke-linejoin="round"/>
<path d="M195.947 10.4457C197.699 6.55432 201.311 4.10984 205.154 3.14903C207.351 2.60008 208.763 2.50489 210.993 2.11555C214.171 1.56031 219.829 3.13376 221.905 4.12126C225.999 6.0679 228.026 9.58537 229.684 13.4595C231.12 16.815 232.234 20.4987 231.958 24.2116C231.958 25.8292 231.611 27.3395 231.277 28.9323C229.098 39.3515 219.637 44.101 214.57 44.6061C209.31 45.1305 204.353 44.2707 199.866 41.2276C198.652 40.4044 195.171 37.4684 194.024 34.2322C192.724 30.5613 191.26 26.6109 192.424 22.5306C192.901 20.8612 193.006 18.971 194.41 17.5623" stroke="#ddd" stroke-width="3" stroke-linecap="round" stroke-linejoin="round"/>
<path d="M140.193 217.692C141.166 215.53 143.173 214.172 145.308 213.638C146.529 213.333 147.313 213.28 148.552 213.064C150.317 212.756 153.46 213.63 154.614 214.178C156.888 215.26 158.014 217.214 158.935 219.366C159.733 221.231 160.352 223.277 160.199 225.34C160.199 226.238 160.006 227.078 159.821 227.962C158.61 233.751 153.354 236.389 150.539 236.67C147.616 236.961 144.863 236.484 142.37 234.793C141.696 234.336 139.762 232.705 139.125 230.907C138.402 228.867 137.589 226.673 138.236 224.406C138.501 223.478 138.559 222.428 139.339 221.646" stroke="#ddd" stroke-width="3" stroke-linecap="round" stroke-linejoin="round"/>
<path d="M12.9948 27.0396C13.4009 24.5445 14.7805 21.8018 15.5748 19.6821" stroke="#ddd" stroke-width="3" stroke-linecap="round" stroke-linejoin="round"/>
<path d="M26.8952 30.964C27.616 28.7089 28.3297 26.4674 29.1142 24.2367" stroke="#ddd" stroke-width="3" stroke-linecap="round" stroke-linejoin="round"/>
<path d="M3.99891 39.5573C10.408 48.3622 19.29 50.7782 28.6739 44.8331" stroke="#ddd" stroke-width="3" stroke-linecap="round" stroke-linejoin="round"/>
<path d="M118.096 178.136C119.474 178.522 120.078 179.688 121.138 181.326C122.527 183.473 122.289 186.163 121.3 188.752C120.809 190.036 120.794 190.091 120.489 190.74C120.265 191.219 120.022 191.691 119.702 192.106C119.249 192.692 118.758 193.249 118.135 193.666C117.612 194.016 117.086 194.356 116.514 194.622C115.939 194.889 115.35 195.115 114.758 195.337C114.338 195.494 113.91 195.643 113.472 195.712C112.801 195.816 112.141 195.984 111.46 196.043C110.968 196.086 110.48 196.137 109.985 196.108C109.431 196.074 108.877 196.046 108.327 195.953C107.982 195.895 107.637 195.846 107.308 195.731C106.892 195.586 106.467 195.471 106.049 195.337C105.482 195.155 104.936 194.933 104.402 194.68C104.246 194.606 104.074 194.583 103.927 194.48C103.763 194.365 103.57 194.293 103.391 194.201C103.211 194.109 103.026 194.025 102.854 193.919C102.515 193.711 102.182 193.494 101.863 193.253C101.6 193.055 101.353 192.841 101.101 192.631C100.575 192.191 100.145 191.663 99.7064 191.138C99.2493 190.591 98.8854 189.985 98.542 189.366C98.0551 188.49 97.6349 187.581 97.3475 186.61C97.2238 186.192 97.1125 185.771 97.0186 185.347C96.9544 185.057 96.9446 184.752 96.923 184.453C96.8404 183.299 96.8889 182.154 97.1187 181.012C97.3284 179.97 97.6681 178.977 98.1307 178.026C98.4954 177.277 98.9081 176.557 99.4336 175.902C100.128 175.037 100.937 174.311 101.872 173.734C102.486 173.356 103.14 173.058 103.829 172.83C104.511 172.604 105.202 172.457 105.909 172.386C106.544 172.322 107.182 172.313 107.821 172.351C108.487 172.392 109.136 172.522 109.776 172.694C110.125 172.788 110.462 172.936 110.796 173.082C111.347 173.325 111.885 173.597 112.351 173.989C112.898 174.449 113.374 174.972 113.768 175.576C114.259 176.328 114.586 177.15 114.855 178.002C115.136 178.891 115.3 179.801 115.324 180.737C115.341 181.403 115.213 182.048 115.078 182.697C114.853 183.772 114.461 184.775 113.892 185.705C113.339 186.607 112.652 187.402 111.844 188.085C111.363 188.492 110.84 188.838 110.257 189.07C109.568 189.345 108.854 189.444 108.11 189.373C107.17 189.283 106.327 188.932 105.51 188.493C104.935 188.185 104.392 187.824 103.89 187.407C103.573 187.145 103.303 186.828 103.041 186.506C102.615 185.983 102.288 185.403 102.047 184.774C101.733 183.952 101.719 183.114 102.162 182.34C102.56 181.646 103.167 181.185 103.961 180.986C104.787 180.779 105.599 180.808 106.401 181.047C106.979 181.219 107.466 181.526 107.752 182.103C107.991 182.587 107.85 183.091 107.061 184.039" stroke="#ddd" stroke-width="2" stroke-linecap="round" stroke-linejoin="round"/>
<path d="M97.4518 30.6044C95.8672 29.2684 95.7707 27.3685 95.356 24.5739C94.8121 20.9095 96.7406 17.5073 99.5973 14.6875C101.014 13.2887 101.067 13.226 101.858 12.5528C102.442 12.0558 103.045 11.5793 103.716 11.2247C104.664 10.7239 105.646 10.2837 106.717 10.1079C107.616 9.9604 108.513 9.82806 109.428 9.82036C110.346 9.81282 111.259 9.86823 112.172 9.93151C112.819 9.97647 113.473 10.0357 114.091 10.2084C115.039 10.4733 116.01 10.6479 116.942 10.9784C117.617 11.2174 118.291 11.4424 118.925 11.7783C119.637 12.1554 120.349 12.5249 121.019 12.9778C121.438 13.2611 121.864 13.5322 122.229 13.8816C122.689 14.3218 123.182 14.729 123.652 15.1557C124.291 15.7359 124.878 16.3561 125.429 17.0102C125.59 17.2007 125.803 17.3348 125.935 17.5589C126.083 17.8083 126.293 18.0191 126.475 18.2482C126.656 18.4777 126.85 18.699 127.013 18.9412C127.335 19.4192 127.644 19.9049 127.92 20.4141C128.147 20.833 128.345 21.2638 128.551 21.6918C128.982 22.5866 129.231 23.5413 129.494 24.496C129.768 25.4917 129.885 26.5085 129.966 27.5298C130.082 28.978 130.091 30.4284 129.887 31.8801C129.8 32.505 129.694 33.1266 129.563 33.7422C129.474 34.1639 129.304 34.571 129.153 34.9785C128.57 36.5493 127.819 38.0288 126.831 39.3964C125.929 40.6449 124.886 41.7497 123.705 42.7257C122.775 43.495 121.799 44.1963 120.714 44.7443C119.28 45.4682 117.777 45.9407 116.199 46.1393C115.162 46.2697 114.122 46.2705 113.076 46.1578C112.042 46.0465 111.042 45.8257 110.067 45.495C109.192 45.198 108.346 44.8275 107.527 44.3936C106.673 43.9408 105.896 43.3791 105.156 42.7694C104.751 42.4358 104.396 42.038 104.044 41.6453C103.462 40.9949 102.917 40.3135 102.537 39.5168C102.092 38.582 101.779 37.6082 101.621 36.5744C101.425 35.2888 101.487 34.0092 101.643 32.7251C101.807 31.3848 102.137 30.087 102.667 28.8381C103.044 27.9492 103.599 27.1763 104.167 26.4013C105.107 25.1198 106.227 24.0321 107.535 23.1488C108.805 22.2905 110.188 21.6547 111.662 21.2389C112.54 20.9912 113.437 20.849 114.345 20.8926C115.419 20.944 116.419 21.2414 117.357 21.7816C118.543 22.4643 119.443 23.4327 120.258 24.501C120.83 25.2524 121.329 26.0544 121.742 26.9044C122.002 27.4411 122.167 28.0196 122.319 28.6014C122.568 29.5468 122.651 30.5073 122.59 31.4809C122.511 32.7537 122.028 33.866 120.979 34.6208C120.038 35.2977 118.961 35.5407 117.795 35.327C116.583 35.1047 115.529 34.5779 114.615 33.7817C113.957 33.2085 113.499 32.5124 113.468 31.5792C113.443 30.7979 113.931 30.2187 115.54 29.442" stroke="#ddd" stroke-width="3" stroke-linecap="round" stroke-linejoin="round"/>
<path d="M58.1872 104.196C54.6953 99.4953 43.6916 99.0833 42.1006 106.002C40.2939 113.861 48.5416 135.745 59.1451 134.502C63.4459 133.999 62.5328 127.333 66.1549 127.027C70.3052 126.676 73.1415 136.244 79.0823 124.154C84.8614 112.394 73.3162 84.976 59.4609 103.457" stroke="#ddd" stroke-width="3" stroke-linecap="round" stroke-linejoin="round"/>
<path d="M54.2758 93.2589C57.703 96.2488 57.8732 100.271 59.0097 104.199" stroke="#ddd" stroke-width="3" stroke-linecap="round" stroke-linejoin="round"/>
<path d="M58.3869 101.365C57.2518 98.3895 58.8254 79.3919 62.0562 80.6342C67.3185 82.6582 60.3441 97.3556 58.7814 99.766" stroke="#ddd" stroke-width="3" stroke-linecap="round" stroke-linejoin="round"/>
<path d="M141.093 99.2821C141.081 99.2798 141.082 99.2798 141.093 99.2805C141.124 99.2824 141.167 99.2831 141.22 99.2824C141.346 99.2805 141.511 99.2704 141.712 99.2517C142.119 99.2137 142.653 99.1425 143.298 99.0406C144.467 98.856 145.967 98.5764 147.718 98.2224C149.162 97.9305 150.704 97.6026 152.264 97.2597C152.837 97.1337 153.381 97.0126 153.892 96.8978C154.232 96.8213 154.47 96.7673 154.749 96.7038C155.393 96.5568 158.482 95.6758 160.914 94.9239C162.48 94.4397 163.835 93.9942 164.873 93.6176C165.441 93.4115 165.905 93.2293 166.249 93.0763C166.416 93.002 166.55 92.9366 166.648 92.8829C166.706 92.8508 166.733 92.8328 166.712 92.8522C167.207 92.3976 167.978 92.4301 168.433 92.9249C168.887 93.4197 168.854 94.1894 168.359 94.644C167.693 95.2545 165.459 96.0654 161.633 97.2484C159.146 98.0174 156.01 98.9117 155.289 99.0761C155.008 99.1402 154.768 99.1946 154.426 99.2717C153.911 99.3874 153.363 99.5094 152.786 99.6362C151.213 99.9818 149.659 100.312 148.2 100.607C143.988 101.459 141.506 101.851 140.606 101.667C139.377 101.414 138.428 100.511 137.982 99.1635C137.547 97.8476 137.588 96.1389 138.117 94.0977C138.659 92.0043 139.596 89.8397 140.694 88.1746C142.001 86.1937 143.46 84.9801 145.034 84.9393C146.188 84.9094 147.164 85.2508 148.046 85.8684C148.155 85.9452 148.261 86.0242 148.367 86.1082C148.393 86.0571 148.421 86.0025 148.451 85.9442C149.172 84.5425 149.556 83.8261 150.108 82.9036C151.223 81.041 152.339 79.5966 153.544 78.6215C154.494 77.8524 155.486 77.3942 156.526 77.3203C159.156 77.1333 161.002 77.9366 161.765 79.6681C163.811 78.849 165.521 78.5687 166.924 78.8677C168.211 79.142 169.515 80.1566 170.695 81.5924C171.703 82.8185 172.503 84.2314 172.733 85.2398C172.98 86.3256 172.669 87.8408 171.999 89.1979C171.246 90.7229 170.153 91.8526 168.835 92.1528C168.179 92.3024 167.527 91.8925 167.377 91.2374C167.228 90.5823 167.639 89.93 168.295 89.7805C168.753 89.6759 169.354 89.0555 169.815 88.1226C170.259 87.2217 170.462 86.237 170.358 85.7813C170.225 85.1987 169.601 84.0969 168.812 83.1372C167.95 82.0882 167.041 81.381 166.415 81.2475C165.347 81.02 163.674 81.4013 161.452 82.4641C160.676 82.8351 159.77 82.3079 159.711 81.4508C159.62 80.1221 158.819 79.5967 156.697 79.7475C156.212 79.782 155.669 80.0329 155.077 80.5118C154.14 81.2703 153.18 82.5131 152.198 84.1519C151.681 85.0154 151.315 85.6982 150.618 87.0546C150.327 87.6212 150.206 87.8511 150.079 88.0746C149.989 88.2343 149.91 88.3611 149.831 88.4694C149.769 88.5543 149.706 88.6304 149.631 88.7038C149.465 88.8647 149.279 88.9886 149.001 89.0519C148.571 89.15 148.209 89.0485 147.874 88.8468C147.718 88.7531 147.585 88.6489 147.404 88.491C147.384 88.4731 147.115 88.2341 147.032 88.1636C146.893 88.045 146.771 87.9481 146.647 87.8613C146.166 87.5245 145.686 87.3565 145.096 87.3718C143.763 87.4064 141.462 90.895 140.475 94.7062C140.054 96.3302 140.024 97.5799 140.295 98.3989C140.476 98.9466 140.753 99.2114 141.095 99.2826L141.093 99.2821Z" fill="#ddd"/>
</svg>
