<svg width="264" height="252" viewBox="0 0 264 252" fill="none" xmlns="http://www.w3.org/2000/svg">
<path fill-rule="evenodd" clip-rule="evenodd" d="M38.3128 197.488C38.018 195.459 39.2925 194.615 40.9426 194.233C47.1633 192.795 55.4969 196.786 58.3593 202.556C58.8808 203.606 59.2917 204.719 59.6723 205.83C61.9673 212.543 59.8957 218.76 54.1176 222.817C51.0006 225.004 47.6372 226.494 43.8176 226.813C37.2565 227.358 31.9349 223.979 29.6257 217.846C29.2124 216.745 28.8787 215.596 28.3263 214.566C26.1351 210.484 26.7591 206.743 29.1738 202.932C30.2939 201.164 31.6691 199.922 33.4633 199.105C35.0459 198.384 36.7381 197.901 38.3743 197.331C38.7847 199.814 37.3021 201.372 35.7767 202.956C31.5316 207.368 31.3329 212.353 33.7945 217.682C33.959 218.04 34.1372 218.392 34.2963 218.753C35.7629 222.076 38.4084 223.326 41.9113 223.149C45.8524 222.949 49.2107 221.125 52.0077 218.688C55.5479 215.602 58.1871 210.632 55.1747 204.271C53.0603 199.807 48.9671 195.925 42.3057 197.358C40.9776 197.644 39.6718 198.31 38.3128 197.488Z" fill="#ccc"/>
<path fill-rule="evenodd" clip-rule="evenodd" d="M19.8003 227.692C19.3732 227.865 18.1631 228.54 16.869 228.804C16.2853 228.923 15.4089 228.36 14.8908 227.868C14.2376 227.249 14.5328 226.294 15.0534 225.795C16.4483 224.457 17.9151 223.164 19.4938 222.053C21.0622 220.949 23.5819 222.418 23.8434 224.421C23.9352 225.112 23.6003 225.569 23.1297 225.876C22.3221 226.401 21.4383 226.811 19.8003 227.692Z" fill="#ccc"/>
<path fill-rule="evenodd" clip-rule="evenodd" d="M29.3652 236.752C28.7909 236.91 28.4109 237.112 28.0404 237.094C27.476 237.067 26.8421 237.018 26.38 236.741C25.8057 236.397 25.8916 235.672 26.1544 235.167C26.7856 233.96 27.4291 232.739 28.2376 231.65C29.4538 230.014 31.5675 230.444 32.3249 232.469C32.5041 232.951 32.5204 233.772 32.2317 234.097C31.329 235.111 30.2437 235.961 29.3652 236.752Z" fill="#ccc"/>
<path fill-rule="evenodd" clip-rule="evenodd" d="M67.3859 198.955C66.3843 199.336 65.32 199.85 64.1981 200.137C63.1326 200.409 62.2256 199.914 61.8256 198.887C61.5055 198.065 61.926 197.335 62.6591 196.919C64.5384 195.849 66.5168 194.977 68.662 194.649C69.0775 194.583 69.6885 195.085 70.0372 195.478C70.5102 196.011 70.1565 196.652 69.76 197.039C69.0673 197.718 68.2516 198.27 67.3859 198.955Z" fill="#ccc"/>
<path fill-rule="evenodd" clip-rule="evenodd" d="M33.5967 186.752C33.32 186.238 33.027 185.732 32.7721 185.209C32.3457 184.335 31.7787 183.257 32.8436 182.651C33.7274 182.148 34.7141 182.783 35.4558 183.47C36.5956 184.525 37.8378 185.518 38.325 187.079C38.6218 188.027 38.7714 189.052 37.7337 189.643C36.8006 190.178 35.7752 189.965 35.0694 189.225C34.4155 188.543 33.992 187.638 33.4684 186.831C33.5117 186.805 33.5544 186.778 33.5967 186.752Z" fill="#ccc"/>
<path fill-rule="evenodd" clip-rule="evenodd" d="M72.2619 210.844C72.3256 211.501 72.0242 212.081 71.4574 212.195C68.8433 212.721 66.4257 211.957 64.1786 210.716C63.5188 210.353 63.2119 209.419 63.7084 208.65C63.9905 208.217 64.6397 207.614 64.9779 207.693C67.2388 208.231 69.6309 208.453 71.5648 209.936C71.8595 210.164 72.0357 210.543 72.2619 210.844Z" fill="#ccc"/>
<path fill-rule="evenodd" clip-rule="evenodd" d="M66.9725 224.354C66.9653 224.777 67.1543 225.457 66.9035 225.867C66.4319 226.637 65.4495 226.609 64.8001 226.262C63.0501 225.33 61.6481 223.969 60.7413 222.166C60.4394 221.566 60.6052 220.929 61.0925 220.61C61.5224 220.327 62.2638 220.095 62.6739 220.277C64.5047 221.092 65.8112 222.54 66.9725 224.354Z" fill="#ccc"/>
<path fill-rule="evenodd" clip-rule="evenodd" d="M28.0219 195.411C28.1258 196.047 27.895 196.536 27.3828 196.908C26.5344 197.527 25.5544 197.744 24.6005 197.397C23.5023 196.997 22.4607 196.426 21.4362 195.853C20.4548 195.304 20.4831 194.032 21.4372 193.521C23.6913 192.313 27.0362 193.274 28.0219 195.411Z" fill="#ccc"/>
<path fill-rule="evenodd" clip-rule="evenodd" d="M48.9003 182.034C49.2784 182.287 49.8904 182.488 50.1538 182.907C51.2887 184.724 50.9904 186.628 49.9794 188.339C49.415 189.293 48.2595 189.023 47.356 188.683C46.6015 188.399 46.0226 187.737 46.1294 186.918C46.3534 185.182 47.0966 183.627 48.2277 182.28C48.3331 182.153 48.5804 182.144 48.9003 182.034Z" fill="#ccc"/>
<path fill-rule="evenodd" clip-rule="evenodd" d="M58.3623 231.8C58.4329 232.132 58.6441 232.873 58.7339 233.628C58.8038 234.216 58.6108 234.807 57.9757 234.994C57.6542 235.089 57.1305 235.075 56.9228 234.876C55.5328 233.551 54.0451 232.276 53.3194 230.425C53.1105 229.893 53.1066 229.189 53.7082 228.892C54.1756 228.663 54.8593 228.495 55.3017 228.667C56.5956 229.173 57.5377 230.147 58.3623 231.8Z" fill="#ccc"/>
<path fill-rule="evenodd" clip-rule="evenodd" d="M17.4737 207.523C18.5215 207.007 19.626 206.362 20.7784 206.673C21.8802 206.971 23.1007 207.624 23.2295 208.894C23.3419 210.019 22.2881 210.461 21.2752 210.61C20.3183 210.751 19.3519 210.835 18.3879 210.922C17.415 211.01 16.4471 211.005 15.76 210.152C15.2531 209.519 16.0841 208.262 17.4737 207.523Z" fill="#ccc"/>
<path fill-rule="evenodd" clip-rule="evenodd" d="M41.2484 231.903C41.4312 231.836 41.6171 231.708 41.7975 231.714C43.8108 231.77 45.5042 233.545 45.4296 235.498C45.3925 236.475 44.3402 237.318 43.424 237.105C41.5056 236.661 40.1122 234.609 40.5401 232.761C40.6148 232.436 41.0038 232.187 41.2484 231.903Z" fill="#ccc"/>
<path fill-rule="evenodd" clip-rule="evenodd" d="M59.5549 186.654C60.4931 186.215 61.6551 186.87 61.9183 187.838C62.577 190.251 60.3488 192.418 57.8674 191.715C57.0555 191.486 56.6886 190.778 56.8285 189.922C57.1036 188.234 58.3395 187.353 59.5549 186.654Z" fill="#ccc"/>
<path d="M155.912 142.096C163.283 148.903 174.644 149.826 182.96 144.882C183.078 144.812 186.127 143.035 186.327 143.263C186.674 143.659 186.181 145.867 186.103 146.241C181.832 166.725 159.008 177.455 152.181 151.501C151.245 147.943 151.901 143.308 152.964 140.057" stroke="#ccc" stroke-width="4" stroke-linecap="round" stroke-linejoin="round"/>
<path d="M175.675 148.877C174.931 153.905 174.315 159.041 173.027 164.016" stroke="#ccc" stroke-width="4" stroke-linecap="round" stroke-linejoin="round"/>
<path d="M167.861 150.444C166.814 155.056 166.098 159.841 164.804 164.335" stroke="#ccc" stroke-width="4" stroke-linecap="round" stroke-linejoin="round"/>
<path d="M160.963 146.972C159.692 151.834 158.079 156.625 157.05 161.556" stroke="#ccc" stroke-width="4" stroke-linecap="round" stroke-linejoin="round"/>
<path d="M161.107 128.161C163.223 134.496 163.897 135.796 169.225 130.211" stroke="#ccc" stroke-width="4" stroke-linecap="round" stroke-linejoin="round"/>
<path d="M175.866 131.238C177.982 137.572 178.656 138.873 183.984 133.288" stroke="#ccc" stroke-width="4" stroke-linecap="round" stroke-linejoin="round"/>
<path d="M223.999 221.059C224.047 226.841 222.588 232.797 222.588 238.471" stroke="#ccc" stroke-width="3" stroke-linecap="round" stroke-linejoin="round"/>
<path d="M220.471 222.656C224.626 229.364 224.996 223.285 232 222.235" stroke="#ccc" stroke-width="3" stroke-linecap="round" stroke-linejoin="round"/>
<path d="M215.858 230.607C211.087 231.712 206.182 222.403 208.669 218.692C209.139 217.991 211.154 217.472 211.365 217.054C211.886 216.018 209.665 215.229 209.568 214.075C209.26 210.401 211.411 205.886 214.66 203.947C216.449 202.88 219.873 203.65 221.549 204.692C221.941 204.935 223.438 206.965 223.496 206.926C227.82 204.059 236.384 198.569 240.419 204.99C241.807 207.197 239.276 209.071 239.671 210.054C240.292 211.598 246.275 213.432 247.758 218.841C249.8 226.286 238.429 235.452 231.733 230.458" stroke="#ccc" stroke-width="3" stroke-linecap="round" stroke-linejoin="round"/>
<path d="M230.643 129.908C232.579 116.207 218.107 108.503 217.01 93.4071C216.486 86.1951 224.886 79.4471 231.773 81.1915C244.354 84.377 246.719 99.0525 252.602 106.345C254.308 108.46 260.232 111.258 258.283 114.875C255.2 120.597 250.619 112.999 247.178 114.215C245.019 114.978 250.829 122.796 245.856 123.884C243.908 124.31 242.927 119.236 240.274 119.938C237.714 120.615 243.454 131.126 236.839 129.451" stroke="#ccc" stroke-width="4" stroke-linecap="round" stroke-linejoin="round"/>
<path d="M235.073 97.3995C235.317 98.0406 235.636 98.6558 235.866 99.2754" stroke="#ccc" stroke-width="4" stroke-linecap="round" stroke-linejoin="round"/>
<path d="M232.017 101.305C231.75 100.855 231.482 100.406 231.215 99.956" stroke="#ccc" stroke-width="4" stroke-linecap="round" stroke-linejoin="round"/>
<path d="M202.947 12.4457C204.699 8.55432 208.311 6.10984 212.154 5.14903C214.351 4.60008 215.763 4.50489 217.993 4.11555C221.171 3.56031 226.829 5.13376 228.905 6.12126C232.999 8.0679 235.026 11.5854 236.684 15.4595C238.12 18.815 239.234 22.4987 238.958 26.2116C238.958 27.8292 238.611 29.3395 238.277 30.9323C236.098 41.3515 226.637 46.101 221.57 46.6061C216.31 47.1305 211.353 46.2707 206.866 43.2276C205.652 42.4044 202.171 39.4684 201.024 36.2322C199.724 32.5613 198.26 28.6109 199.424 24.5306C199.901 22.8612 200.006 20.971 201.41 19.5623" stroke="#ccc" stroke-width="6" stroke-linecap="round" stroke-linejoin="round"/>
<path d="M145.193 217.692C146.166 215.53 148.173 214.172 150.308 213.638C151.529 213.333 152.313 213.28 153.552 213.064C155.317 212.756 158.46 213.63 159.614 214.178C161.888 215.26 163.014 217.214 163.935 219.366C164.733 221.231 165.352 223.277 165.199 225.34C165.199 226.238 165.006 227.078 164.821 227.962C163.61 233.751 158.354 236.389 155.539 236.67C152.616 236.961 149.863 236.484 147.37 234.793C146.696 234.336 144.762 232.705 144.125 230.907C143.402 228.867 142.589 226.673 143.236 224.406C143.501 223.478 143.559 222.428 144.339 221.646" stroke="#ccc" stroke-width="3" stroke-linecap="round" stroke-linejoin="round"/>
<path d="M25.6381 20.0706C26.992 16.7537 29.769 13.4043 31.5397 10.7293" stroke="#ccc" stroke-width="7" stroke-linecap="round" stroke-linejoin="round"/>
<path d="M43.5883 29.9082C45.3006 27.0228 46.9986 24.1541 48.791 21.3227" stroke="#ccc" stroke-width="7" stroke-linecap="round" stroke-linejoin="round"/>
<path d="M9.23585 34.4993C15.2889 48.6964 26.7876 54.8559 41.6369 49.6277" stroke="#ccc" stroke-width="7" stroke-linecap="round" stroke-linejoin="round"/>
<path d="M123.096 178.136C124.474 178.522 125.078 179.688 126.138 181.326C127.527 183.473 127.289 186.163 126.3 188.752C125.809 190.036 125.794 190.091 125.489 190.74C125.265 191.219 125.022 191.691 124.702 192.106C124.249 192.692 123.758 193.249 123.135 193.666C122.612 194.016 122.086 194.356 121.514 194.622C120.939 194.889 120.35 195.115 119.758 195.337C119.338 195.494 118.91 195.643 118.472 195.712C117.801 195.816 117.141 195.984 116.46 196.043C115.968 196.086 115.48 196.137 114.985 196.108C114.431 196.074 113.877 196.046 113.327 195.953C112.982 195.895 112.637 195.846 112.308 195.731C111.892 195.586 111.467 195.471 111.049 195.337C110.482 195.155 109.936 194.933 109.402 194.68C109.246 194.606 109.074 194.583 108.927 194.48C108.763 194.365 108.57 194.293 108.391 194.201C108.211 194.109 108.026 194.025 107.854 193.919C107.515 193.711 107.182 193.494 106.863 193.253C106.6 193.055 106.353 192.841 106.101 192.631C105.575 192.191 105.145 191.663 104.706 191.138C104.249 190.591 103.885 189.985 103.542 189.366C103.055 188.49 102.635 187.581 102.348 186.61C102.224 186.192 102.112 185.771 102.019 185.347C101.954 185.057 101.945 184.752 101.923 184.453C101.84 183.299 101.889 182.154 102.119 181.012C102.328 179.97 102.668 178.977 103.131 178.026C103.495 177.277 103.908 176.557 104.434 175.902C105.128 175.037 105.937 174.311 106.872 173.734C107.486 173.356 108.14 173.058 108.829 172.83C109.511 172.604 110.202 172.457 110.909 172.386C111.544 172.322 112.182 172.313 112.821 172.351C113.487 172.392 114.136 172.522 114.776 172.694C115.125 172.788 115.462 172.936 115.796 173.082C116.347 173.325 116.885 173.597 117.351 173.989C117.898 174.449 118.374 174.972 118.768 175.576C119.259 176.328 119.586 177.15 119.855 178.002C120.136 178.891 120.3 179.801 120.324 180.737C120.341 181.403 120.213 182.048 120.078 182.697C119.853 183.772 119.461 184.775 118.892 185.705C118.339 186.607 117.652 187.402 116.844 188.085C116.363 188.492 115.84 188.838 115.257 189.07C114.568 189.345 113.854 189.444 113.11 189.373C112.17 189.283 111.327 188.932 110.51 188.493C109.935 188.185 109.392 187.824 108.89 187.407C108.573 187.145 108.303 186.828 108.041 186.506C107.615 185.983 107.288 185.403 107.047 184.774C106.733 183.952 106.719 183.114 107.162 182.34C107.56 181.646 108.167 181.185 108.961 180.986C109.787 180.779 110.599 180.808 111.401 181.047C111.979 181.219 112.466 181.526 112.752 182.103C112.991 182.587 112.85 183.091 112.061 184.039" stroke="#ccc" stroke-width="2" stroke-linecap="round" stroke-linejoin="round"/>
<path d="M91.9048 15.4357C92.2804 12.663 94.3756 11.1778 97.2601 8.68233C101.042 5.41015 106.315 5.14519 111.596 6.35956C114.216 6.96197 114.326 6.97684 115.666 7.39092C116.654 7.69629 117.634 8.03855 118.524 8.54653C119.781 9.26441 120.993 10.0645 121.968 11.1578C122.787 12.0757 123.588 13.0025 124.259 14.0393C124.932 15.0804 125.529 16.1602 126.118 17.2463C126.535 18.0168 126.941 18.8046 127.192 19.6341C127.576 20.9058 128.08 22.1391 128.378 23.4408C128.594 24.3827 128.826 25.3137 128.902 26.2794C128.987 27.363 129.082 28.4424 129.05 29.5336C129.031 30.2165 129.03 30.8974 128.896 31.5669C128.728 32.41 128.62 33.2656 128.474 34.1104C128.276 35.2585 127.994 36.3761 127.647 37.4781C127.547 37.7992 127.548 38.1393 127.389 38.4522C127.211 38.8005 127.123 39.1932 126.993 39.5657C126.863 39.9388 126.752 40.32 126.594 40.6813C126.282 41.3941 125.952 42.0971 125.571 42.7805C125.259 43.343 124.911 43.8804 124.572 44.4249C123.864 45.5627 122.957 46.5382 122.059 47.529C121.123 48.5622 120.048 49.4308 118.944 50.2631C117.377 51.4433 115.731 52.503 113.929 53.322C113.154 53.6746 112.369 54.0041 111.572 54.3006C111.027 54.5036 110.44 54.605 109.867 54.7276C107.654 55.1999 105.425 55.4155 103.151 55.2795C101.076 55.1554 99.0616 54.7661 97.095 54.1276C95.5448 53.6242 94.0394 53.0197 92.629 52.1793C90.7665 51.0695 89.1401 49.6988 87.7715 48.0442C86.8725 46.9573 86.1183 45.772 85.4899 44.4989C84.8684 43.24 84.3959 41.9402 84.0674 40.5903C83.7724 39.3781 83.5824 38.1461 83.4841 36.8987C83.3816 35.5973 83.4594 34.3054 83.6183 33.0204C83.7056 32.3178 83.9015 31.6247 84.0947 30.9399C84.4146 29.8059 84.7964 28.6914 85.4295 27.6821C86.1725 26.4979 87.0556 25.4364 88.1195 24.5085C89.4427 23.3544 90.9457 22.4987 92.5223 21.7475C94.168 20.9636 95.8857 20.4002 97.6925 20.1002C98.9785 19.8866 100.261 19.9594 101.556 20.0462C103.696 20.19 105.746 20.6783 107.699 21.5294C109.597 22.3562 111.322 23.4714 112.863 24.8506C113.781 25.672 114.592 26.5907 115.2 27.6572C115.919 28.918 116.304 30.2727 116.367 31.7331C116.447 33.5784 115.996 35.3058 115.368 37.0068C114.926 38.2032 114.373 39.3524 113.703 40.4377C113.28 41.1228 112.74 41.7295 112.187 42.3245C111.29 43.2915 110.255 44.0815 109.102 44.7174C107.594 45.5487 105.977 45.8028 104.358 45.154C102.905 44.572 101.849 43.5199 101.248 42.037C100.624 40.4942 100.462 38.9123 100.707 37.2946C100.884 36.1298 101.346 35.1033 102.387 34.3933C103.259 33.799 104.273 33.9363 106.322 35.2071" stroke="#ccc" stroke-width="4" stroke-linecap="round" stroke-linejoin="round"/>
<path d="M58.701 115.685C54.0775 109.461 39.5081 108.915 37.4016 118.077C35.0094 128.482 45.9297 157.457 59.9693 155.812C65.6637 155.145 64.4547 146.32 69.2507 145.914C74.7458 145.449 78.5012 158.118 86.3672 142.11C94.0189 126.539 78.7325 90.2365 60.3874 114.706" stroke="#ccc" stroke-width="5" stroke-linecap="round" stroke-linejoin="round"/>
<path d="M53.5221 101.204C58.0598 105.162 58.2853 110.488 59.79 115.689" stroke="#ccc" stroke-width="5" stroke-linecap="round" stroke-linejoin="round"/>
<path d="M58.9654 111.936C57.4625 107.997 59.546 82.843 63.8237 84.4878C70.7913 87.1678 61.5568 106.628 59.4877 109.819" stroke="#ccc" stroke-width="5" stroke-linecap="round" stroke-linejoin="round"/>
<path d="M128.668 85.7798C128.652 85.7724 128.654 85.7729 128.669 85.7773C128.714 85.7908 128.779 85.8067 128.859 85.8238C129.049 85.8641 129.301 85.9055 129.609 85.9461C130.234 86.0286 131.06 86.1044 132.064 86.1722C133.882 86.295 136.231 86.3888 138.983 86.4565C141.251 86.5123 143.679 86.5477 146.14 86.5669C147.043 86.5739 147.903 86.5784 148.709 86.5807C149.246 86.5823 149.622 86.5827 150.062 86.5827C151.081 86.5827 156.022 86.3169 159.932 86.0201C162.449 85.829 164.638 85.6241 166.326 85.4138C167.25 85.2986 168.009 85.1836 168.578 85.0717C168.854 85.0173 169.078 84.9651 169.243 84.9177C169.341 84.8894 169.388 84.8716 169.35 84.8936C170.25 84.3804 171.396 84.6931 171.91 85.592C172.423 86.4909 172.11 87.6357 171.21 88.1489C170.002 88.838 166.368 89.2909 160.216 89.7578C156.217 90.0613 151.202 90.3311 150.062 90.3311C149.618 90.3311 149.239 90.3307 148.698 90.3292C147.886 90.3268 147.021 90.3223 146.11 90.3152C143.63 90.2959 141.181 90.2602 138.89 90.2038C132.271 90.041 128.409 89.7802 127.121 89.195C125.361 88.3953 124.245 86.7133 124.036 84.5367C123.833 82.4111 124.48 79.8587 125.973 76.9738C127.505 74.0152 129.654 71.0849 131.873 68.9598C134.513 66.4318 137.121 65.1087 139.499 65.5862C141.242 65.9363 142.591 66.7833 143.704 68.0129C143.843 68.1657 143.974 68.3206 144.104 68.483C144.161 68.4152 144.222 68.3428 144.287 68.2655C145.849 66.4068 146.671 65.4622 147.817 64.2659C150.13 61.85 152.301 60.0626 154.444 59.0105C156.135 58.1808 157.781 57.8318 159.368 58.0768C163.382 58.6966 165.88 60.5351 166.434 63.3972C169.788 62.8676 172.452 63.0318 174.457 63.9614C176.296 64.8141 177.907 66.7845 179.188 69.3451C180.282 71.5318 181 73.9279 181 75.5213C181 77.2369 180.014 79.4062 178.543 81.2152C176.89 83.248 174.86 84.5702 172.779 84.5702C171.742 84.5702 170.902 83.7311 170.902 82.696C170.902 81.6609 171.742 80.8218 172.779 80.8218C173.504 80.8218 174.618 80.0955 175.63 78.8521C176.606 77.6512 177.247 76.2414 177.247 75.5213C177.247 74.6008 176.687 72.7322 175.831 71.0206C174.895 69.1498 173.772 67.7765 172.877 67.3615C171.351 66.6542 168.708 66.6542 165.006 67.4896C163.713 67.7812 162.534 66.6792 162.738 65.3717C163.056 63.3445 162.034 62.2814 158.795 61.7813C158.054 61.6669 157.152 61.858 156.1 62.3747C154.432 63.1931 152.564 64.7309 150.529 66.8564C149.457 67.9765 148.674 68.8767 147.162 70.6754C146.531 71.4266 146.271 71.7306 146.003 72.0229C145.812 72.2317 145.651 72.3952 145.495 72.5309C145.374 72.6373 145.252 72.7299 145.114 72.8143C144.811 72.9994 144.488 73.1216 144.049 73.1216C143.369 73.1216 142.861 72.8453 142.426 72.4277C142.225 72.2336 142.061 72.0316 141.843 71.7325C141.818 71.6985 141.496 71.2475 141.396 71.1132C141.228 70.8876 141.077 70.7 140.921 70.5272C140.313 69.8566 139.65 69.4401 138.759 69.2611C136.745 68.8566 132.095 73.3088 129.307 78.6952C128.119 80.9905 127.646 82.8573 127.773 84.1801C127.857 85.0649 128.183 85.5575 128.672 85.7814L128.668 85.7798Z" fill="#ccc"/>
</svg>
