<svg xmlns="http://www.w3.org/2000/svg" xmlns:xlink="http://www.w3.org/1999/xlink" width="800px" height="1000px" viewBox="0 0 800 1000" version="1.1">
    <g id="speachbubble_0006_DL" stroke="none" stroke-width="1" fill="none" fill-rule="evenodd">
        <g id="logo-footer" transform="translate(553.000000, 705.000000)">
        </g>
        <path d="M281.883403,430.723191 C281.552566,430.117066 281.073017,420.323695 271.210089,417.294255 C261.34716,414.264815 261.842145,414.241628 260.158924,414.00621 C258.669009,413.796779 257.185971,413.575883 255.708282,413.274732 C254.275672,412.97893 252.837714,412.695358 251.416565,412.333823 C250.946669,412.21535 250.472188,412.10452 250,411.986811 C250.452323,411.624512 250.912286,411.271384 251.360024,410.909849 C252.360177,410.103466 253.329768,409.255808 254.303178,408.4135 C256.070446,406.884811 257.872096,405.406568 259.711949,403.96425 C261.347035,402.738241 262.989761,401.524462 264.692084,400.390938 C266.623624,399.104546 279.326099,391.995377 279.946514,391.798176 C280.328544,391.691168 280.683831,391.532948 281.017724,391.323518 C281.934595,390.768604 282.450334,389.99203 282.799509,389.000675 C283.137987,388.051359 282.976771,380.908558 282.823195,379.928668 C282.453391,376.655744 282.387682,357.297188 282.140127,354.014327 C282.014821,352.365636 281.898684,350.717709 281.842144,349.066725 C281.797828,347.794855 281.925426,346.525279 282.049968,345.259524 C282.258556,344.802446 282.374693,344.307915 282.394558,343.808798 C283.814179,343.928036 285.2338,344.047273 286.655713,344.101542 C288.957058,344.19097 291.258402,344.236066 293.559747,344.325495 C295.744191,344.408808 297.928634,344.460019 300.113842,344.346132 C302.298286,344.236066 304.479673,344.080905 306.664881,343.957845 C310.911519,343.71937 319.763902,343.722427 324.017417,343.629941 C328.640735,343.528283 333.26329,343.447263 337.886609,343.32191 C342.148528,343.208787 346.402042,343.002414 350.654793,342.707377 C355.212403,342.393232 359.773069,342.196795 364.339083,342.046983 C373.161668,341.760354 413.227375,341.151172 417.766647,340.939448 C422.216525,340.730782 426.666402,340.536638 431.122392,340.402114 C435.635687,340.264532 440.151273,340.214085 444.663804,340.165931 C449.161817,340.118542 471.350437,338.386537 475.752943,338.192393 C480.268529,337.992899 484.790228,337.953918 489.308871,337.924108 C493.794659,337.891242 498.280448,337.780412 502.767,337.679518 C506.91813,337.583975 511.063913,337.506012 515.215807,337.311868 C521.519291,337.016067 527.082402,336.876192 533.388942,337.138362 C536.420727,337.264479 539.450219,337.380659 542.485824,337.422698 C543.912322,337.440278 545.341875,337.490725 546.768373,337.541936 C547.484296,337.565631 548.204039,337.57251 548.923018,337.593912 C549.059785,339.344261 549.102572,341.10684 549.263788,342.856424 C549.445634,344.845249 549.658043,346.830252 549.839889,348.81602 C550.209693,352.816599 549.857462,356.814886 549.600738,360.806294 C549.338666,364.837448 549.180506,368.861722 549.117853,372.89899 C549.0552,377.147218 549.013177,381.399267 549.114797,385.647495 C549.305812,393.497314 548.851961,425.280293 548.97421,427.238544 C549.088055,429.066092 549.221765,430.884468 549.266845,432.714309 C549.356239,436.449661 549.359296,645.287665 549.260732,649.023017 C549.204192,651.232738 549.185854,653.438636 549.188911,655.648357 C549.188911,656.636654 549.216417,657.628009 549.25462,658.619364 C549.268373,658.962555 549.294351,659.307274 549.320329,659.651994 C548.794656,659.750594 548.2644,659.834672 547.750952,659.930215 C547.031209,660.063211 546.307645,660.172513 545.584082,660.278757 C541.511649,660.674687 537.402542,660.634177 533.323233,660.434683 C528.822163,660.21073 524.327207,660.121302 519.823845,660.115187 C515.642152,660.109072 511.463515,660.375064 507.282586,660.398759 C502.617244,660.425511 497.952666,660.419396 493.284268,660.422453 C484.447166,660.428568 404.819674,661.001827 395.978751,661.270876 C391.812339,661.396228 387.661209,661.357247 383.497089,661.241066 C379.098404,661.121064 374.70201,660.998769 370.308673,660.730484 C368.052408,660.592902 365.793087,660.419396 363.533765,660.333025 C361.357726,660.249711 359.164114,660.115187 356.981962,660.165633 C352.648222,660.267291 348.326706,660.541691 343.999078,660.798511 C339.495716,661.064503 334.994647,661.264761 330.482117,661.333552 C326.070442,661.401579 321.659532,661.476485 317.250913,661.542218 C311.473102,661.628589 305.694526,661.565913 299.934288,662.076495 C297.153115,662.32185 294.365065,662.473954 291.580835,662.706315 C289.488843,662.877528 286.602229,663.06785 284.498776,662.976129 C284.289424,661.072146 284.245872,659.288166 284.131263,657.496542 C283.990677,655.311281 283.143336,455.197438 282.985175,453.128357 C282.927871,452.36707 282.832364,451.60884 282.775823,450.85061" id="speachbubble_0006" stroke="#000000" stroke-width="16" stroke-linecap="round" stroke-linejoin="round" transform="translate(400.000000, 500.000000) rotate(-90.000000) translate(-400.000000, -500.000000) "/>
    </g>
</svg>