<svg width="298" height="295" viewBox="0 0 298 295" fill="none" xmlns="http://www.w3.org/2000/svg">
<path fill-rule="evenodd" clip-rule="evenodd" d="M255.091 253.091L226.707 281.474L226 280.767L254.384 252.384L226.707 224.707L227.414 224L255.091 251.676L282.767 224L283.474 224.707L255.798 252.384L284.181 280.767L283.474 281.474L255.091 253.091Z" fill="#eee"/>
<path d="M226.707 281.474L219.99 288.192L226.707 294.909L233.425 288.192L226.707 281.474ZM255.091 253.091L261.808 246.373L255.091 239.656L248.373 246.373L255.091 253.091ZM226 280.767L219.282 274.05L212.565 280.767L219.282 287.485L226 280.767ZM254.384 252.384L261.101 259.101L267.819 252.384L261.101 245.666L254.384 252.384ZM226.707 224.707L219.99 217.99L213.272 224.707L219.99 231.425L226.707 224.707ZM227.414 224L234.132 217.282L227.414 210.565L220.697 217.282L227.414 224ZM255.091 251.676L248.373 258.394L255.091 265.111L261.808 258.394L255.091 251.676ZM282.767 224L289.485 217.282L282.767 210.565L276.05 217.282L282.767 224ZM283.474 224.707L290.192 231.425L296.909 224.707L290.192 217.99L283.474 224.707ZM255.798 252.384L249.08 245.666L242.363 252.384L249.08 259.101L255.798 252.384ZM284.181 280.767L290.899 287.485L297.616 280.767L290.899 274.05L284.181 280.767ZM283.474 281.474L276.757 288.192L283.474 294.909L290.192 288.192L283.474 281.474ZM233.425 288.192L261.808 259.808L248.373 246.373L219.99 274.757L233.425 288.192ZM219.282 287.485L219.99 288.192L233.425 274.757L232.718 274.05L219.282 287.485ZM247.666 245.666L219.282 274.05L232.718 287.485L261.101 259.101L247.666 245.666ZM261.101 245.666L233.425 217.99L219.99 231.425L247.666 259.101L261.101 245.666ZM233.425 231.425L234.132 230.718L220.697 217.282L219.99 217.99L233.425 231.425ZM220.697 230.718L248.373 258.394L261.808 244.959L234.132 217.282L220.697 230.718ZM276.05 217.282L248.373 244.959L261.808 258.394L289.485 230.718L276.05 217.282ZM290.192 217.99L289.485 217.282L276.05 230.718L276.757 231.425L290.192 217.99ZM262.515 259.101L290.192 231.425L276.757 217.99L249.08 245.666L262.515 259.101ZM249.08 259.101L277.464 287.485L290.899 274.05L262.515 245.666L249.08 259.101ZM277.464 274.05L276.757 274.757L290.192 288.192L290.899 287.485L277.464 274.05ZM290.192 274.757L261.808 246.373L248.373 259.808L276.757 288.192L290.192 274.757Z" fill="#eee"/>
<path fill-rule="evenodd" clip-rule="evenodd" d="M244.214 135.214L225.707 153.72L225 153.013L243.507 134.507L225.707 116.707L226.414 116L244.214 133.799L262.013 116L262.72 116.707L244.921 134.507L263.427 153.013L262.72 153.72L244.214 135.214Z" fill="#eee"/>
<path d="M225.707 153.72L224.293 155.134L225.707 156.549L227.121 155.134L225.707 153.72ZM244.214 135.214L245.628 133.799L244.214 132.385L242.799 133.799L244.214 135.214ZM225 153.013L223.586 151.599L222.172 153.013L223.586 154.427L225 153.013ZM243.507 134.507L244.921 135.921L246.335 134.507L244.921 133.092L243.507 134.507ZM225.707 116.707L224.293 115.293L222.879 116.707L224.293 118.121L225.707 116.707ZM226.414 116L227.828 114.586L226.414 113.172L225 114.586L226.414 116ZM244.214 133.799L242.799 135.214L244.214 136.628L245.628 135.214L244.214 133.799ZM262.013 116L263.427 114.586L262.013 113.172L260.599 114.586L262.013 116ZM262.72 116.707L264.134 118.121L265.549 116.707L264.134 115.293L262.72 116.707ZM244.921 134.507L243.507 133.092L242.092 134.507L243.507 135.921L244.921 134.507ZM263.427 153.013L264.842 154.427L266.256 153.013L264.842 151.599L263.427 153.013ZM262.72 153.72L261.306 155.134L262.72 156.549L264.134 155.134L262.72 153.72ZM227.121 155.134L245.628 136.628L242.799 133.799L224.293 152.306L227.121 155.134ZM223.586 154.427L224.293 155.134L227.121 152.306L226.414 151.599L223.586 154.427ZM242.092 133.092L223.586 151.599L226.414 154.427L244.921 135.921L242.092 133.092ZM244.921 133.092L227.121 115.293L224.293 118.121L242.092 135.921L244.921 133.092ZM227.121 118.121L227.828 117.414L225 114.586L224.293 115.293L227.121 118.121ZM225 117.414L242.799 135.214L245.628 132.385L227.828 114.586L225 117.414ZM260.599 114.586L242.799 132.385L245.628 135.214L263.427 117.414L260.599 114.586ZM264.134 115.293L263.427 114.586L260.599 117.414L261.306 118.121L264.134 115.293ZM246.335 135.921L264.134 118.121L261.306 115.293L243.507 133.092L246.335 135.921ZM243.507 135.921L262.013 154.427L264.842 151.599L246.335 133.092L243.507 135.921ZM262.013 151.599L261.306 152.306L264.134 155.134L264.842 154.427L262.013 151.599ZM264.134 152.306L245.628 133.799L242.799 136.628L261.306 155.134L264.134 152.306Z" fill="#eee"/>
<path fill-rule="evenodd" clip-rule="evenodd" d="M91.3074 185.307L77.7071 198.908L77 198.201L90.6003 184.6L77.7071 171.707L78.4142 171L91.3074 183.893L104.201 171L104.908 171.707L92.0145 184.6L105.615 198.201L104.908 198.908L91.3074 185.307Z" fill="#eee"/>
<path d="M77.7071 198.908L73.818 202.797L77.7071 206.686L81.5962 202.797L77.7071 198.908ZM91.3074 185.307L95.1965 181.418L91.3074 177.529L87.4183 181.418L91.3074 185.307ZM77 198.201L73.1109 194.311L69.2218 198.201L73.1109 202.09L77 198.201ZM90.6003 184.6L94.4894 188.489L98.3785 184.6L94.4894 180.711L90.6003 184.6ZM77.7071 171.707L73.818 167.818L69.9289 171.707L73.818 175.596L77.7071 171.707ZM78.4142 171L82.3033 167.111L78.4142 163.222L74.5251 167.111L78.4142 171ZM91.3074 183.893L87.4183 187.782L91.3074 191.671L95.1965 187.782L91.3074 183.893ZM104.201 171L108.09 167.111L104.201 163.222L100.311 167.111L104.201 171ZM104.908 171.707L108.797 175.596L112.686 171.707L108.797 167.818L104.908 171.707ZM92.0145 184.6L88.1254 180.711L84.2363 184.6L88.1254 188.489L92.0145 184.6ZM105.615 198.201L109.504 202.09L113.393 198.201L109.504 194.311L105.615 198.201ZM104.908 198.908L101.019 202.797L104.908 206.686L108.797 202.797L104.908 198.908ZM81.5962 202.797L95.1965 189.196L87.4183 181.418L73.818 195.019L81.5962 202.797ZM73.1109 202.09L73.818 202.797L81.5962 195.019L80.8891 194.311L73.1109 202.09ZM86.7112 180.711L73.1109 194.311L80.8891 202.09L94.4894 188.489L86.7112 180.711ZM94.4894 180.711L81.5962 167.818L73.818 175.596L86.7112 188.489L94.4894 180.711ZM81.5962 175.596L82.3033 174.889L74.5251 167.111L73.818 167.818L81.5962 175.596ZM74.5251 174.889L87.4183 187.782L95.1965 180.004L82.3033 167.111L74.5251 174.889ZM100.311 167.111L87.4183 180.004L95.1965 187.782L108.09 174.889L100.311 167.111ZM108.797 167.818L108.09 167.111L100.311 174.889L101.019 175.596L108.797 167.818ZM95.9036 188.489L108.797 175.596L101.019 167.818L88.1254 180.711L95.9036 188.489ZM88.1254 188.489L101.726 202.09L109.504 194.311L95.9036 180.711L88.1254 188.489ZM101.726 194.311L101.019 195.019L108.797 202.797L109.504 202.09L101.726 194.311ZM108.797 195.019L95.1965 181.418L87.4183 189.196L101.019 202.797L108.797 195.019Z" fill="#eee"/>
<path fill-rule="evenodd" clip-rule="evenodd" d="M145.282 31.2815L130.707 45.8559L130 45.1488L144.574 30.5744L130.707 16.7071L131.414 16L145.282 29.8673L159.149 16L159.856 16.7071L145.989 30.5744L160.563 45.1488L159.856 45.8559L145.282 31.2815Z" fill="#eee"/>
<path d="M130.707 45.8559L129.646 46.9166L130.707 47.9772L131.768 46.9166L130.707 45.8559ZM145.282 31.2815L146.342 30.2209L145.282 29.1602L144.221 30.2209L145.282 31.2815ZM130 45.1488L128.939 44.0882L127.879 45.1488L128.939 46.2095L130 45.1488ZM144.574 30.5744L145.635 31.6351L146.696 30.5744L145.635 29.5138L144.574 30.5744ZM130.707 16.7071L129.646 15.6464L128.586 16.7071L129.646 17.7678L130.707 16.7071ZM131.414 16L132.475 14.9393L131.414 13.8787L130.354 14.9393L131.414 16ZM145.282 29.8673L144.221 30.928L145.282 31.9886L146.342 30.928L145.282 29.8673ZM159.149 16L160.209 14.9393L159.149 13.8787L158.088 14.9393L159.149 16ZM159.856 16.7071L160.917 17.7678L161.977 16.7071L160.917 15.6464L159.856 16.7071ZM145.989 30.5744L144.928 29.5138L143.867 30.5744L144.928 31.6351L145.989 30.5744ZM160.563 45.1488L161.624 46.2095L162.684 45.1488L161.624 44.0882L160.563 45.1488ZM159.856 45.8559L158.795 46.9166L159.856 47.9772L160.917 46.9166L159.856 45.8559ZM131.768 46.9166L146.342 32.3422L144.221 30.2209L129.646 44.7953L131.768 46.9166ZM128.939 46.2095L129.646 46.9166L131.768 44.7953L131.061 44.0882L128.939 46.2095ZM143.514 29.5138L128.939 44.0882L131.061 46.2095L145.635 31.6351L143.514 29.5138ZM145.635 29.5138L131.768 15.6464L129.646 17.7678L143.514 31.6351L145.635 29.5138ZM131.768 17.7678L132.475 17.0607L130.354 14.9393L129.646 15.6464L131.768 17.7678ZM130.354 17.0607L144.221 30.928L146.342 28.8066L132.475 14.9393L130.354 17.0607ZM158.088 14.9393L144.221 28.8066L146.342 30.928L160.209 17.0607L158.088 14.9393ZM160.917 15.6464L160.209 14.9393L158.088 17.0607L158.795 17.7678L160.917 15.6464ZM147.049 31.6351L160.917 17.7678L158.795 15.6464L144.928 29.5138L147.049 31.6351ZM144.928 31.6351L159.502 46.2095L161.624 44.0882L147.049 29.5138L144.928 31.6351ZM159.502 44.0882L158.795 44.7953L160.917 46.9166L161.624 46.2095L159.502 44.0882ZM160.917 44.7953L146.342 30.2209L144.221 32.3422L158.795 46.9166L160.917 44.7953Z" fill="#eee"/>
<path fill-rule="evenodd" clip-rule="evenodd" d="M41.2815 246.282L26.7071 260.856L26 260.149L40.5744 245.574L26.7071 231.707L27.4142 231L41.2815 244.867L55.1488 231L55.8559 231.707L41.9886 245.574L56.563 260.149L55.8559 260.856L41.2815 246.282Z" fill="#eee"/>
<path d="M26.7071 260.856L24.5858 262.977L26.7071 265.099L28.8284 262.977L26.7071 260.856ZM41.2815 246.282L43.4028 244.16L41.2815 242.039L39.1602 244.16L41.2815 246.282ZM26 260.149L23.8787 258.027L21.7574 260.149L23.8787 262.27L26 260.149ZM40.5744 245.574L42.6957 247.696L44.817 245.574L42.6957 243.453L40.5744 245.574ZM26.7071 231.707L24.5858 229.586L22.4645 231.707L24.5858 233.828L26.7071 231.707ZM27.4142 231L29.5355 228.879L27.4142 226.757L25.2929 228.879L27.4142 231ZM41.2815 244.867L39.1602 246.989L41.2815 249.11L43.4028 246.989L41.2815 244.867ZM55.1488 231L57.2701 228.879L55.1488 226.757L53.0275 228.879L55.1488 231ZM55.8559 231.707L57.9772 233.828L60.0986 231.707L57.9772 229.586L55.8559 231.707ZM41.9886 245.574L39.8673 243.453L37.746 245.574L39.8673 247.696L41.9886 245.574ZM56.563 260.149L58.6843 262.27L60.8057 260.149L58.6843 258.027L56.563 260.149ZM55.8559 260.856L53.7346 262.977L55.8559 265.099L57.9772 262.977L55.8559 260.856ZM28.8284 262.977L43.4028 248.403L39.1602 244.16L24.5858 258.735L28.8284 262.977ZM23.8787 262.27L24.5858 262.977L28.8284 258.735L28.1213 258.027L23.8787 262.27ZM38.4531 243.453L23.8787 258.027L28.1213 262.27L42.6957 247.696L38.4531 243.453ZM42.6957 243.453L28.8284 229.586L24.5858 233.828L38.4531 247.696L42.6957 243.453ZM28.8284 233.828L29.5355 233.121L25.2929 228.879L24.5858 229.586L28.8284 233.828ZM25.2929 233.121L39.1602 246.989L43.4028 242.746L29.5355 228.879L25.2929 233.121ZM53.0275 228.879L39.1602 242.746L43.4028 246.989L57.2701 233.121L53.0275 228.879ZM57.9772 229.586L57.2701 228.879L53.0275 233.121L53.7346 233.828L57.9772 229.586ZM44.1099 247.696L57.9772 233.828L53.7346 229.586L39.8673 243.453L44.1099 247.696ZM39.8673 247.696L54.4417 262.27L58.6843 258.027L44.1099 243.453L39.8673 247.696ZM54.4417 258.027L53.7346 258.735L57.9772 262.977L58.6843 262.27L54.4417 258.027ZM57.9772 258.735L43.4028 244.16L39.1602 248.403L53.7346 262.977L57.9772 258.735Z" fill="#eee"/>
<path fill-rule="evenodd" clip-rule="evenodd" d="M56.6947 120.695L42.7071 134.682L42 133.975L55.9876 119.988L42.7071 106.707L43.4142 106L56.6947 119.28L69.9751 106L70.6822 106.707L57.4018 119.988L71.3893 133.975L70.6822 134.682L56.6947 120.695Z" fill="#eee"/>
<path d="M42.7071 134.682L41.6464 135.743L42.7071 136.804L43.7678 135.743L42.7071 134.682ZM56.6947 120.695L57.7553 119.634L56.6947 118.573L55.634 119.634L56.6947 120.695ZM42 133.975L40.9393 132.914L39.8787 133.975L40.9393 135.036L42 133.975ZM55.9876 119.988L57.0482 121.048L58.1089 119.988L57.0482 118.927L55.9876 119.988ZM42.7071 106.707L41.6464 105.646L40.5858 106.707L41.6464 107.768L42.7071 106.707ZM43.4142 106L44.4749 104.939L43.4142 103.879L42.3536 104.939L43.4142 106ZM56.6947 119.28L55.634 120.341L56.6947 121.402L57.7553 120.341L56.6947 119.28ZM69.9751 106L71.0358 104.939L69.9751 103.879L68.9145 104.939L69.9751 106ZM70.6822 106.707L71.7429 107.768L72.8035 106.707L71.7429 105.646L70.6822 106.707ZM57.4018 119.988L56.3411 118.927L55.2804 119.988L56.3411 121.048L57.4018 119.988ZM71.3893 133.975L72.45 135.036L73.5106 133.975L72.45 132.914L71.3893 133.975ZM70.6822 134.682L69.6216 135.743L70.6822 136.804L71.7429 135.743L70.6822 134.682ZM43.7678 135.743L57.7553 121.755L55.634 119.634L41.6464 133.622L43.7678 135.743ZM40.9393 135.036L41.6464 135.743L43.7678 133.622L43.0607 132.914L40.9393 135.036ZM54.9269 118.927L40.9393 132.914L43.0607 135.036L57.0482 121.048L54.9269 118.927ZM57.0482 118.927L43.7678 105.646L41.6464 107.768L54.9269 121.048L57.0482 118.927ZM43.7678 107.768L44.4749 107.061L42.3536 104.939L41.6464 105.646L43.7678 107.768ZM42.3536 107.061L55.634 120.341L57.7553 118.22L44.4749 104.939L42.3536 107.061ZM68.9145 104.939L55.634 118.22L57.7553 120.341L71.0358 107.061L68.9145 104.939ZM71.7429 105.646L71.0358 104.939L68.9145 107.061L69.6216 107.768L71.7429 105.646ZM58.4624 121.048L71.7429 107.768L69.6216 105.646L56.3411 118.927L58.4624 121.048ZM56.3411 121.048L70.3287 135.036L72.45 132.914L58.4624 118.927L56.3411 121.048ZM70.3287 132.914L69.6216 133.622L71.7429 135.743L72.45 135.036L70.3287 132.914ZM71.7429 133.622L57.7553 119.634L55.634 121.755L69.6216 135.743L71.7429 133.622Z" fill="#eee"/>
<path fill-rule="evenodd" clip-rule="evenodd" d="M113.654 79.6541L106.707 86.6012L106 85.894L112.947 78.947L106.707 72.7071L107.414 72L113.654 78.2399L119.894 72L120.601 72.7071L114.361 78.947L121.308 85.894L120.601 86.6012L113.654 79.6541Z" fill="#eee"/>
<path d="M106.707 86.6012L104.939 88.3689L106.707 90.1367L108.475 88.3689L106.707 86.6012ZM113.654 79.6541L115.422 77.8864L113.654 76.1186L111.886 77.8864L113.654 79.6541ZM106 85.894L104.232 84.1263L102.464 85.894L104.232 87.6618L106 85.894ZM112.947 78.947L114.715 80.7148L116.483 78.947L114.715 77.1793L112.947 78.947ZM106.707 72.7071L104.939 70.9393L103.172 72.7071L104.939 74.4749L106.707 72.7071ZM107.414 72L109.182 70.2322L107.414 68.4645L105.646 70.2322L107.414 72ZM113.654 78.2399L111.886 80.0077L113.654 81.7755L115.422 80.0077L113.654 78.2399ZM119.894 72L121.662 70.2322L119.894 68.4645L118.126 70.2322L119.894 72ZM120.601 72.7071L122.369 74.4749L124.137 72.7071L122.369 70.9393L120.601 72.7071ZM114.361 78.947L112.593 77.1793L110.826 78.947L112.593 80.7148L114.361 78.947ZM121.308 85.894L123.076 87.6618L124.844 85.894L123.076 84.1263L121.308 85.894ZM120.601 86.6012L118.833 88.3689L120.601 90.1367L122.369 88.3689L120.601 86.6012ZM108.475 88.3689L115.422 81.4219L111.886 77.8864L104.939 84.8334L108.475 88.3689ZM104.232 87.6618L104.939 88.3689L108.475 84.8334L107.768 84.1263L104.232 87.6618ZM111.179 77.1793L104.232 84.1263L107.768 87.6618L114.715 80.7148L111.179 77.1793ZM114.715 77.1793L108.475 70.9393L104.939 74.4749L111.179 80.7148L114.715 77.1793ZM108.475 74.4749L109.182 73.7678L105.646 70.2322L104.939 70.9393L108.475 74.4749ZM105.646 73.7678L111.886 80.0077L115.422 76.4721L109.182 70.2322L105.646 73.7678ZM118.126 70.2322L111.886 76.4721L115.422 80.0077L121.662 73.7678L118.126 70.2322ZM122.369 70.9393L121.662 70.2322L118.126 73.7678L118.833 74.4749L122.369 70.9393ZM116.129 80.7148L122.369 74.4749L118.833 70.9393L112.593 77.1793L116.129 80.7148ZM112.593 80.7148L119.54 87.6618L123.076 84.1263L116.129 77.1793L112.593 80.7148ZM119.54 84.1263L118.833 84.8334L122.369 88.3689L123.076 87.6618L119.54 84.1263ZM122.369 84.8334L115.422 77.8864L111.886 81.4219L118.833 88.3689L122.369 84.8334Z" fill="#eee"/>
<path fill-rule="evenodd" clip-rule="evenodd" d="M190.654 255.654L183.707 262.601L183 261.894L189.947 254.947L183.707 248.707L184.414 248L190.654 254.24L196.894 248L197.601 248.707L191.361 254.947L198.308 261.894L197.601 262.601L190.654 255.654Z" fill="#eee"/>
<path d="M183.707 262.601L183 263.308L183.707 264.015L184.414 263.308L183.707 262.601ZM190.654 255.654L191.361 254.947L190.654 254.24L189.947 254.947L190.654 255.654ZM183 261.894L182.293 261.187L181.586 261.894L182.293 262.601L183 261.894ZM189.947 254.947L190.654 255.654L191.361 254.947L190.654 254.24L189.947 254.947ZM183.707 248.707L183 248L182.293 248.707L183 249.414L183.707 248.707ZM184.414 248L185.121 247.293L184.414 246.586L183.707 247.293L184.414 248ZM190.654 254.24L189.947 254.947L190.654 255.654L191.361 254.947L190.654 254.24ZM196.894 248L197.601 247.293L196.894 246.586L196.187 247.293L196.894 248ZM197.601 248.707L198.308 249.414L199.015 248.707L198.308 248L197.601 248.707ZM191.361 254.947L190.654 254.24L189.947 254.947L190.654 255.654L191.361 254.947ZM198.308 261.894L199.015 262.601L199.722 261.894L199.015 261.187L198.308 261.894ZM197.601 262.601L196.894 263.308L197.601 264.015L198.308 263.308L197.601 262.601ZM184.414 263.308L191.361 256.361L189.947 254.947L183 261.894L184.414 263.308ZM182.293 262.601L183 263.308L184.414 261.894L183.707 261.187L182.293 262.601ZM189.24 254.24L182.293 261.187L183.707 262.601L190.654 255.654L189.24 254.24ZM190.654 254.24L184.414 248L183 249.414L189.24 255.654L190.654 254.24ZM184.414 249.414L185.121 248.707L183.707 247.293L183 248L184.414 249.414ZM183.707 248.707L189.947 254.947L191.361 253.533L185.121 247.293L183.707 248.707ZM196.187 247.293L189.947 253.533L191.361 254.947L197.601 248.707L196.187 247.293ZM198.308 248L197.601 247.293L196.187 248.707L196.894 249.414L198.308 248ZM192.068 255.654L198.308 249.414L196.894 248L190.654 254.24L192.068 255.654ZM190.654 255.654L197.601 262.601L199.015 261.187L192.068 254.24L190.654 255.654ZM197.601 261.187L196.894 261.894L198.308 263.308L199.015 262.601L197.601 261.187ZM198.308 261.894L191.361 254.947L189.947 256.361L196.894 263.308L198.308 261.894Z" fill="#eee"/>
<path fill-rule="evenodd" clip-rule="evenodd" d="M205.654 191.654L198.707 198.601L198 197.894L204.947 190.947L198.707 184.707L199.414 184L205.654 190.24L211.894 184L212.601 184.707L206.361 190.947L213.308 197.894L212.601 198.601L205.654 191.654Z" fill="#eee"/>
<path d="M198.707 198.601L198 199.308L198.707 200.015L199.414 199.308L198.707 198.601ZM205.654 191.654L206.361 190.947L205.654 190.24L204.947 190.947L205.654 191.654ZM198 197.894L197.293 197.187L196.586 197.894L197.293 198.601L198 197.894ZM204.947 190.947L205.654 191.654L206.361 190.947L205.654 190.24L204.947 190.947ZM198.707 184.707L198 184L197.293 184.707L198 185.414L198.707 184.707ZM199.414 184L200.121 183.293L199.414 182.586L198.707 183.293L199.414 184ZM205.654 190.24L204.947 190.947L205.654 191.654L206.361 190.947L205.654 190.24ZM211.894 184L212.601 183.293L211.894 182.586L211.187 183.293L211.894 184ZM212.601 184.707L213.308 185.414L214.015 184.707L213.308 184L212.601 184.707ZM206.361 190.947L205.654 190.24L204.947 190.947L205.654 191.654L206.361 190.947ZM213.308 197.894L214.015 198.601L214.722 197.894L214.015 197.187L213.308 197.894ZM212.601 198.601L211.894 199.308L212.601 200.015L213.308 199.308L212.601 198.601ZM199.414 199.308L206.361 192.361L204.947 190.947L198 197.894L199.414 199.308ZM197.293 198.601L198 199.308L199.414 197.894L198.707 197.187L197.293 198.601ZM204.24 190.24L197.293 197.187L198.707 198.601L205.654 191.654L204.24 190.24ZM205.654 190.24L199.414 184L198 185.414L204.24 191.654L205.654 190.24ZM199.414 185.414L200.121 184.707L198.707 183.293L198 184L199.414 185.414ZM198.707 184.707L204.947 190.947L206.361 189.533L200.121 183.293L198.707 184.707ZM211.187 183.293L204.947 189.533L206.361 190.947L212.601 184.707L211.187 183.293ZM213.308 184L212.601 183.293L211.187 184.707L211.894 185.414L213.308 184ZM207.068 191.654L213.308 185.414L211.894 184L205.654 190.24L207.068 191.654ZM205.654 191.654L212.601 198.601L214.015 197.187L207.068 190.24L205.654 191.654ZM212.601 197.187L211.894 197.894L213.308 199.308L214.015 198.601L212.601 197.187ZM213.308 197.894L206.361 190.947L204.947 192.361L211.894 199.308L213.308 197.894Z" fill="#eee"/>
<circle cx="44" cy="46" r="26.5" stroke="#eee" stroke-width="13"/>
<circle cx="153" cy="131" r="23" stroke="#eee" stroke-width="4"/>
<circle cx="256" cy="195" r="9.5" stroke="#eee" stroke-width="3"/>
<circle cx="28" cy="169" r="15.5" stroke="#eee" stroke-width="3"/>
<circle cx="163" cy="208" r="9.5" stroke="#eee" stroke-width="3"/>
<circle cx="110.145" cy="255" r="18" stroke="#eee" stroke-width="4"/>
<circle cx="240" cy="49" r="18" stroke="#eee" stroke-width="10"/>
<circle cx="183" cy="76" r="12" stroke="#eee" stroke-width="4"/>
</svg>
