<svg width="292" height="292" viewBox="0 0 292 292" fill="none" xmlns="http://www.w3.org/2000/svg">
<path fill-rule="evenodd" clip-rule="evenodd" d="M255.091 253.091L226.707 281.474L226 280.767L254.384 252.384L226.707 224.707L227.414 224L255.091 251.676L282.767 224L283.474 224.707L255.798 252.384L284.181 280.767L283.474 281.474L255.091 253.091Z" fill="#eee"/>
<path d="M226.707 281.474L225.293 282.888L226.707 284.303L228.121 282.888L226.707 281.474ZM255.091 253.091L256.505 251.676L255.091 250.262L253.676 251.676L255.091 253.091ZM226 280.767L224.586 279.353L223.172 280.767L224.586 282.181L226 280.767ZM254.384 252.384L255.798 253.798L257.212 252.384L255.798 250.969L254.384 252.384ZM226.707 224.707L225.293 223.293L223.879 224.707L225.293 226.121L226.707 224.707ZM227.414 224L228.828 222.586L227.414 221.172L226 222.586L227.414 224ZM255.091 251.676L253.676 253.091L255.091 254.505L256.505 253.091L255.091 251.676ZM282.767 224L284.181 222.586L282.767 221.172L281.353 222.586L282.767 224ZM283.474 224.707L284.888 226.121L286.303 224.707L284.888 223.293L283.474 224.707ZM255.798 252.384L254.384 250.969L252.969 252.384L254.384 253.798L255.798 252.384ZM284.181 280.767L285.595 282.181L287.01 280.767L285.595 279.353L284.181 280.767ZM283.474 281.474L282.06 282.888L283.474 284.303L284.888 282.888L283.474 281.474ZM228.121 282.888L256.505 254.505L253.676 251.676L225.293 280.06L228.121 282.888ZM224.586 282.181L225.293 282.888L228.121 280.06L227.414 279.353L224.586 282.181ZM252.969 250.969L224.586 279.353L227.414 282.181L255.798 253.798L252.969 250.969ZM255.798 250.969L228.121 223.293L225.293 226.121L252.969 253.798L255.798 250.969ZM228.121 226.121L228.828 225.414L226 222.586L225.293 223.293L228.121 226.121ZM226 225.414L253.676 253.091L256.505 250.262L228.828 222.586L226 225.414ZM281.353 222.586L253.676 250.262L256.505 253.091L284.181 225.414L281.353 222.586ZM284.888 223.293L284.181 222.586L281.353 225.414L282.06 226.121L284.888 223.293ZM257.212 253.798L284.888 226.121L282.06 223.293L254.384 250.969L257.212 253.798ZM254.384 253.798L282.767 282.181L285.595 279.353L257.212 250.969L254.384 253.798ZM282.767 279.353L282.06 280.06L284.888 282.888L285.595 282.181L282.767 279.353ZM284.888 280.06L256.505 251.676L253.676 254.505L282.06 282.888L284.888 280.06Z" fill="#eee"/>
<path fill-rule="evenodd" clip-rule="evenodd" d="M244.214 135.214L225.707 153.72L225 153.013L243.507 134.507L225.707 116.707L226.414 116L244.214 133.799L262.013 116L262.72 116.707L244.921 134.507L263.427 153.013L262.72 153.72L244.214 135.214Z" fill="#eee"/>
<path d="M225.707 153.72L224.293 155.134L225.707 156.549L227.121 155.134L225.707 153.72ZM244.214 135.214L245.628 133.799L244.214 132.385L242.799 133.799L244.214 135.214ZM225 153.013L223.586 151.599L222.172 153.013L223.586 154.427L225 153.013ZM243.507 134.507L244.921 135.921L246.335 134.507L244.921 133.092L243.507 134.507ZM225.707 116.707L224.293 115.293L222.879 116.707L224.293 118.121L225.707 116.707ZM226.414 116L227.828 114.586L226.414 113.172L225 114.586L226.414 116ZM244.214 133.799L242.799 135.214L244.214 136.628L245.628 135.214L244.214 133.799ZM262.013 116L263.427 114.586L262.013 113.172L260.599 114.586L262.013 116ZM262.72 116.707L264.134 118.121L265.549 116.707L264.134 115.293L262.72 116.707ZM244.921 134.507L243.507 133.092L242.092 134.507L243.507 135.921L244.921 134.507ZM263.427 153.013L264.842 154.427L266.256 153.013L264.842 151.599L263.427 153.013ZM262.72 153.72L261.306 155.134L262.72 156.549L264.134 155.134L262.72 153.72ZM227.121 155.134L245.628 136.628L242.799 133.799L224.293 152.306L227.121 155.134ZM223.586 154.427L224.293 155.134L227.121 152.306L226.414 151.599L223.586 154.427ZM242.092 133.092L223.586 151.599L226.414 154.427L244.921 135.921L242.092 133.092ZM244.921 133.092L227.121 115.293L224.293 118.121L242.092 135.921L244.921 133.092ZM227.121 118.121L227.828 117.414L225 114.586L224.293 115.293L227.121 118.121ZM225 117.414L242.799 135.214L245.628 132.385L227.828 114.586L225 117.414ZM260.599 114.586L242.799 132.385L245.628 135.214L263.427 117.414L260.599 114.586ZM264.134 115.293L263.427 114.586L260.599 117.414L261.306 118.121L264.134 115.293ZM246.335 135.921L264.134 118.121L261.306 115.293L243.507 133.092L246.335 135.921ZM243.507 135.921L262.013 154.427L264.842 151.599L246.335 133.092L243.507 135.921ZM262.013 151.599L261.306 152.306L264.134 155.134L264.842 154.427L262.013 151.599ZM264.134 152.306L245.628 133.799L242.799 136.628L261.306 155.134L264.134 152.306Z" fill="#eee"/>
<path fill-rule="evenodd" clip-rule="evenodd" d="M91.3074 185.307L77.7071 198.908L77 198.201L90.6003 184.6L77.7071 171.707L78.4142 171L91.3074 183.893L104.201 171L104.908 171.707L92.0145 184.6L105.615 198.201L104.908 198.908L91.3074 185.307Z" fill="#eee"/>
<path d="M77.7071 198.908L76.2929 200.322L77.7071 201.736L79.1213 200.322L77.7071 198.908ZM91.3074 185.307L92.7216 183.893L91.3074 182.479L89.8932 183.893L91.3074 185.307ZM77 198.201L75.5858 196.786L74.1716 198.201L75.5858 199.615L77 198.201ZM90.6003 184.6L92.0145 186.015L93.4287 184.6L92.0145 183.186L90.6003 184.6ZM77.7071 171.707L76.2929 170.293L74.8787 171.707L76.2929 173.121L77.7071 171.707ZM78.4142 171L79.8284 169.586L78.4142 168.172L77 169.586L78.4142 171ZM91.3074 183.893L89.8932 185.307L91.3074 186.722L92.7216 185.307L91.3074 183.893ZM104.201 171L105.615 169.586L104.201 168.172L102.786 169.586L104.201 171ZM104.908 171.707L106.322 173.121L107.736 171.707L106.322 170.293L104.908 171.707ZM92.0145 184.6L90.6003 183.186L89.1861 184.6L90.6003 186.015L92.0145 184.6ZM105.615 198.201L107.029 199.615L108.443 198.201L107.029 196.786L105.615 198.201ZM104.908 198.908L103.493 200.322L104.908 201.736L106.322 200.322L104.908 198.908ZM79.1213 200.322L92.7216 186.722L89.8932 183.893L76.2929 197.493L79.1213 200.322ZM75.5858 199.615L76.2929 200.322L79.1213 197.493L78.4142 196.786L75.5858 199.615ZM89.1861 183.186L75.5858 196.786L78.4142 199.615L92.0145 186.015L89.1861 183.186ZM92.0145 183.186L79.1213 170.293L76.2929 173.121L89.1861 186.015L92.0145 183.186ZM79.1213 173.121L79.8284 172.414L77 169.586L76.2929 170.293L79.1213 173.121ZM77 172.414L89.8932 185.307L92.7216 182.479L79.8284 169.586L77 172.414ZM102.786 169.586L89.8932 182.479L92.7216 185.307L105.615 172.414L102.786 169.586ZM106.322 170.293L105.615 169.586L102.786 172.414L103.493 173.121L106.322 170.293ZM93.4287 186.015L106.322 173.121L103.493 170.293L90.6003 183.186L93.4287 186.015ZM90.6003 186.015L104.201 199.615L107.029 196.786L93.4287 183.186L90.6003 186.015ZM104.201 196.786L103.493 197.493L106.322 200.322L107.029 199.615L104.201 196.786ZM106.322 197.493L92.7216 183.893L89.8932 186.722L103.493 200.322L106.322 197.493Z" fill="#eee"/>
<path fill-rule="evenodd" clip-rule="evenodd" d="M145.282 31.2815L130.707 45.8559L130 45.1488L144.574 30.5744L130.707 16.7071L131.414 16L145.282 29.8673L159.149 16L159.856 16.7071L145.989 30.5744L160.563 45.1488L159.856 45.8559L145.282 31.2815Z" fill="#eee"/>
<path d="M130.707 45.8559L129.646 46.9166L130.707 47.9772L131.768 46.9166L130.707 45.8559ZM145.282 31.2815L146.342 30.2209L145.282 29.1602L144.221 30.2209L145.282 31.2815ZM130 45.1488L128.939 44.0882L127.879 45.1488L128.939 46.2095L130 45.1488ZM144.574 30.5744L145.635 31.6351L146.696 30.5744L145.635 29.5138L144.574 30.5744ZM130.707 16.7071L129.646 15.6464L128.586 16.7071L129.646 17.7678L130.707 16.7071ZM131.414 16L132.475 14.9393L131.414 13.8787L130.354 14.9393L131.414 16ZM145.282 29.8673L144.221 30.928L145.282 31.9886L146.342 30.928L145.282 29.8673ZM159.149 16L160.209 14.9393L159.149 13.8787L158.088 14.9393L159.149 16ZM159.856 16.7071L160.917 17.7678L161.977 16.7071L160.917 15.6464L159.856 16.7071ZM145.989 30.5744L144.928 29.5138L143.867 30.5744L144.928 31.6351L145.989 30.5744ZM160.563 45.1488L161.624 46.2095L162.684 45.1488L161.624 44.0882L160.563 45.1488ZM159.856 45.8559L158.795 46.9166L159.856 47.9772L160.917 46.9166L159.856 45.8559ZM131.768 46.9166L146.342 32.3422L144.221 30.2209L129.646 44.7953L131.768 46.9166ZM128.939 46.2095L129.646 46.9166L131.768 44.7953L131.061 44.0882L128.939 46.2095ZM143.514 29.5138L128.939 44.0882L131.061 46.2095L145.635 31.6351L143.514 29.5138ZM145.635 29.5138L131.768 15.6464L129.646 17.7678L143.514 31.6351L145.635 29.5138ZM131.768 17.7678L132.475 17.0607L130.354 14.9393L129.646 15.6464L131.768 17.7678ZM130.354 17.0607L144.221 30.928L146.342 28.8066L132.475 14.9393L130.354 17.0607ZM158.088 14.9393L144.221 28.8066L146.342 30.928L160.209 17.0607L158.088 14.9393ZM160.917 15.6464L160.209 14.9393L158.088 17.0607L158.795 17.7678L160.917 15.6464ZM147.049 31.6351L160.917 17.7678L158.795 15.6464L144.928 29.5138L147.049 31.6351ZM144.928 31.6351L159.502 46.2095L161.624 44.0882L147.049 29.5138L144.928 31.6351ZM159.502 44.0882L158.795 44.7953L160.917 46.9166L161.624 46.2095L159.502 44.0882ZM160.917 44.7953L146.342 30.2209L144.221 32.3422L158.795 46.9166L160.917 44.7953Z" fill="#eee"/>
<path fill-rule="evenodd" clip-rule="evenodd" d="M41.2815 246.282L26.7071 260.856L26 260.149L40.5744 245.574L26.7071 231.707L27.4142 231L41.2815 244.867L55.1488 231L55.8559 231.707L41.9886 245.574L56.563 260.149L55.8559 260.856L41.2815 246.282Z" fill="#eee"/>
<path d="M26.7071 260.856L25.2929 262.27L26.7071 263.684L28.1213 262.27L26.7071 260.856ZM41.2815 246.282L42.6957 244.867L41.2815 243.453L39.8673 244.867L41.2815 246.282ZM26 260.149L24.5858 258.735L23.1716 260.149L24.5858 261.563L26 260.149ZM40.5744 245.574L41.9886 246.989L43.4028 245.574L41.9886 244.16L40.5744 245.574ZM26.7071 231.707L25.2929 230.293L23.8787 231.707L25.2929 233.121L26.7071 231.707ZM27.4142 231L28.8284 229.586L27.4142 228.172L26 229.586L27.4142 231ZM41.2815 244.867L39.8673 246.282L41.2815 247.696L42.6957 246.282L41.2815 244.867ZM55.1488 231L56.563 229.586L55.1488 228.172L53.7346 229.586L55.1488 231ZM55.8559 231.707L57.2701 233.121L58.6843 231.707L57.2701 230.293L55.8559 231.707ZM41.9886 245.574L40.5744 244.16L39.1602 245.574L40.5744 246.989L41.9886 245.574ZM56.563 260.149L57.9772 261.563L59.3914 260.149L57.9772 258.735L56.563 260.149ZM55.8559 260.856L54.4417 262.27L55.8559 263.684L57.2701 262.27L55.8559 260.856ZM28.1213 262.27L42.6957 247.696L39.8673 244.867L25.2929 259.442L28.1213 262.27ZM24.5858 261.563L25.2929 262.27L28.1213 259.442L27.4142 258.735L24.5858 261.563ZM39.1602 244.16L24.5858 258.735L27.4142 261.563L41.9886 246.989L39.1602 244.16ZM41.9886 244.16L28.1213 230.293L25.2929 233.121L39.1602 246.989L41.9886 244.16ZM28.1213 233.121L28.8284 232.414L26 229.586L25.2929 230.293L28.1213 233.121ZM26 232.414L39.8673 246.282L42.6957 243.453L28.8284 229.586L26 232.414ZM53.7346 229.586L39.8673 243.453L42.6957 246.282L56.563 232.414L53.7346 229.586ZM57.2701 230.293L56.563 229.586L53.7346 232.414L54.4417 233.121L57.2701 230.293ZM43.4028 246.989L57.2701 233.121L54.4417 230.293L40.5744 244.16L43.4028 246.989ZM40.5744 246.989L55.1488 261.563L57.9772 258.735L43.4028 244.16L40.5744 246.989ZM55.1488 258.735L54.4417 259.442L57.2701 262.27L57.9772 261.563L55.1488 258.735ZM57.2701 259.442L42.6957 244.867L39.8673 247.696L54.4417 262.27L57.2701 259.442Z" fill="#eee"/>
<path fill-rule="evenodd" clip-rule="evenodd" d="M56.6947 120.695L42.7071 134.682L42 133.975L55.9876 119.988L42.7071 106.707L43.4142 106L56.6947 119.28L69.9751 106L70.6822 106.707L57.4018 119.988L71.3893 133.975L70.6822 134.682L56.6947 120.695Z" fill="#eee"/>
<path d="M42.7071 134.682L41.6464 135.743L42.7071 136.804L43.7678 135.743L42.7071 134.682ZM56.6947 120.695L57.7553 119.634L56.6947 118.573L55.634 119.634L56.6947 120.695ZM42 133.975L40.9393 132.914L39.8787 133.975L40.9393 135.036L42 133.975ZM55.9876 119.988L57.0482 121.048L58.1089 119.988L57.0482 118.927L55.9876 119.988ZM42.7071 106.707L41.6464 105.646L40.5858 106.707L41.6464 107.768L42.7071 106.707ZM43.4142 106L44.4749 104.939L43.4142 103.879L42.3536 104.939L43.4142 106ZM56.6947 119.28L55.634 120.341L56.6947 121.402L57.7553 120.341L56.6947 119.28ZM69.9751 106L71.0358 104.939L69.9751 103.879L68.9145 104.939L69.9751 106ZM70.6822 106.707L71.7429 107.768L72.8035 106.707L71.7429 105.646L70.6822 106.707ZM57.4018 119.988L56.3411 118.927L55.2805 119.988L56.3411 121.048L57.4018 119.988ZM71.3893 133.975L72.45 135.036L73.5106 133.975L72.45 132.914L71.3893 133.975ZM70.6822 134.682L69.6216 135.743L70.6822 136.804L71.7429 135.743L70.6822 134.682ZM43.7678 135.743L57.7553 121.755L55.634 119.634L41.6464 133.622L43.7678 135.743ZM40.9393 135.036L41.6464 135.743L43.7678 133.622L43.0607 132.914L40.9393 135.036ZM54.9269 118.927L40.9393 132.914L43.0607 135.036L57.0482 121.048L54.9269 118.927ZM57.0482 118.927L43.7678 105.646L41.6464 107.768L54.9269 121.048L57.0482 118.927ZM43.7678 107.768L44.4749 107.061L42.3536 104.939L41.6464 105.646L43.7678 107.768ZM42.3536 107.061L55.634 120.341L57.7553 118.22L44.4749 104.939L42.3536 107.061ZM68.9145 104.939L55.634 118.22L57.7553 120.341L71.0358 107.061L68.9145 104.939ZM71.7429 105.646L71.0358 104.939L68.9145 107.061L69.6216 107.768L71.7429 105.646ZM58.4624 121.048L71.7429 107.768L69.6216 105.646L56.3411 118.927L58.4624 121.048ZM56.3411 121.048L70.3287 135.036L72.45 132.914L58.4624 118.927L56.3411 121.048ZM70.3287 132.914L69.6216 133.622L71.7429 135.743L72.45 135.036L70.3287 132.914ZM71.7429 133.622L57.7553 119.634L55.634 121.755L69.6216 135.743L71.7429 133.622Z" fill="#eee"/>
<path fill-rule="evenodd" clip-rule="evenodd" d="M113.654 79.6541L106.707 86.6012L106 85.894L112.947 78.947L106.707 72.7071L107.414 72L113.654 78.2399L119.894 72L120.601 72.7071L114.361 78.947L121.308 85.894L120.601 86.6012L113.654 79.6541Z" fill="#eee"/>
<path d="M106.707 86.6012L106 87.3083L106.707 88.0154L107.414 87.3083L106.707 86.6012ZM113.654 79.6541L114.361 78.947L113.654 78.2399L112.947 78.947L113.654 79.6541ZM106 85.894L105.293 85.1869L104.586 85.894L105.293 86.6012L106 85.894ZM112.947 78.947L113.654 79.6541L114.361 78.947L113.654 78.2399L112.947 78.947ZM106.707 72.7071L106 72L105.293 72.7071L106 73.4142L106.707 72.7071ZM107.414 72L108.121 71.2929L107.414 70.5858L106.707 71.2929L107.414 72ZM113.654 78.2399L112.947 78.947L113.654 79.6541L114.361 78.947L113.654 78.2399ZM119.894 72L120.601 71.2929L119.894 70.5858L119.187 71.2929L119.894 72ZM120.601 72.7071L121.308 73.4142L122.015 72.7071L121.308 72L120.601 72.7071ZM114.361 78.947L113.654 78.2399L112.947 78.947L113.654 79.6541L114.361 78.947ZM121.308 85.894L122.015 86.6012L122.722 85.894L122.015 85.1869L121.308 85.894ZM120.601 86.6012L119.894 87.3083L120.601 88.0154L121.308 87.3083L120.601 86.6012ZM107.414 87.3083L114.361 80.3612L112.947 78.947L106 85.894L107.414 87.3083ZM105.293 86.6012L106 87.3083L107.414 85.894L106.707 85.1869L105.293 86.6012ZM112.24 78.2399L105.293 85.1869L106.707 86.6012L113.654 79.6541L112.24 78.2399ZM113.654 78.2399L107.414 72L106 73.4142L112.24 79.6541L113.654 78.2399ZM107.414 73.4142L108.121 72.7071L106.707 71.2929L106 72L107.414 73.4142ZM106.707 72.7071L112.947 78.947L114.361 77.5328L108.121 71.2929L106.707 72.7071ZM119.187 71.2929L112.947 77.5328L114.361 78.947L120.601 72.7071L119.187 71.2929ZM121.308 72L120.601 71.2929L119.187 72.7071L119.894 73.4142L121.308 72ZM115.068 79.6541L121.308 73.4142L119.894 72L113.654 78.2399L115.068 79.6541ZM113.654 79.6541L120.601 86.6012L122.015 85.1869L115.068 78.2399L113.654 79.6541ZM120.601 85.1869L119.894 85.894L121.308 87.3083L122.015 86.6012L120.601 85.1869ZM121.308 85.894L114.361 78.947L112.947 80.3612L119.894 87.3083L121.308 85.894Z" fill="#eee"/>
<path fill-rule="evenodd" clip-rule="evenodd" d="M190.654 255.654L183.707 262.601L183 261.894L189.947 254.947L183.707 248.707L184.414 248L190.654 254.24L196.894 248L197.601 248.707L191.361 254.947L198.308 261.894L197.601 262.601L190.654 255.654Z" fill="#eee"/>
<path d="M183.707 262.601L183 263.308L183.707 264.015L184.414 263.308L183.707 262.601ZM190.654 255.654L191.361 254.947L190.654 254.24L189.947 254.947L190.654 255.654ZM183 261.894L182.293 261.187L181.586 261.894L182.293 262.601L183 261.894ZM189.947 254.947L190.654 255.654L191.361 254.947L190.654 254.24L189.947 254.947ZM183.707 248.707L183 248L182.293 248.707L183 249.414L183.707 248.707ZM184.414 248L185.121 247.293L184.414 246.586L183.707 247.293L184.414 248ZM190.654 254.24L189.947 254.947L190.654 255.654L191.361 254.947L190.654 254.24ZM196.894 248L197.601 247.293L196.894 246.586L196.187 247.293L196.894 248ZM197.601 248.707L198.308 249.414L199.015 248.707L198.308 248L197.601 248.707ZM191.361 254.947L190.654 254.24L189.947 254.947L190.654 255.654L191.361 254.947ZM198.308 261.894L199.015 262.601L199.722 261.894L199.015 261.187L198.308 261.894ZM197.601 262.601L196.894 263.308L197.601 264.015L198.308 263.308L197.601 262.601ZM184.414 263.308L191.361 256.361L189.947 254.947L183 261.894L184.414 263.308ZM182.293 262.601L183 263.308L184.414 261.894L183.707 261.187L182.293 262.601ZM189.24 254.24L182.293 261.187L183.707 262.601L190.654 255.654L189.24 254.24ZM190.654 254.24L184.414 248L183 249.414L189.24 255.654L190.654 254.24ZM184.414 249.414L185.121 248.707L183.707 247.293L183 248L184.414 249.414ZM183.707 248.707L189.947 254.947L191.361 253.533L185.121 247.293L183.707 248.707ZM196.187 247.293L189.947 253.533L191.361 254.947L197.601 248.707L196.187 247.293ZM198.308 248L197.601 247.293L196.187 248.707L196.894 249.414L198.308 248ZM192.068 255.654L198.308 249.414L196.894 248L190.654 254.24L192.068 255.654ZM190.654 255.654L197.601 262.601L199.015 261.187L192.068 254.24L190.654 255.654ZM197.601 261.187L196.894 261.894L198.308 263.308L199.015 262.601L197.601 261.187ZM198.308 261.894L191.361 254.947L189.947 256.361L196.894 263.308L198.308 261.894Z" fill="#eee"/>
<path fill-rule="evenodd" clip-rule="evenodd" d="M205.654 191.654L198.707 198.601L198 197.894L204.947 190.947L198.707 184.707L199.414 184L205.654 190.24L211.894 184L212.601 184.707L206.361 190.947L213.308 197.894L212.601 198.601L205.654 191.654Z" fill="#eee"/>
<path d="M198.707 198.601L198 199.308L198.707 200.015L199.414 199.308L198.707 198.601ZM205.654 191.654L206.361 190.947L205.654 190.24L204.947 190.947L205.654 191.654ZM198 197.894L197.293 197.187L196.586 197.894L197.293 198.601L198 197.894ZM204.947 190.947L205.654 191.654L206.361 190.947L205.654 190.24L204.947 190.947ZM198.707 184.707L198 184L197.293 184.707L198 185.414L198.707 184.707ZM199.414 184L200.121 183.293L199.414 182.586L198.707 183.293L199.414 184ZM205.654 190.24L204.947 190.947L205.654 191.654L206.361 190.947L205.654 190.24ZM211.894 184L212.601 183.293L211.894 182.586L211.187 183.293L211.894 184ZM212.601 184.707L213.308 185.414L214.015 184.707L213.308 184L212.601 184.707ZM206.361 190.947L205.654 190.24L204.947 190.947L205.654 191.654L206.361 190.947ZM213.308 197.894L214.015 198.601L214.722 197.894L214.015 197.187L213.308 197.894ZM212.601 198.601L211.894 199.308L212.601 200.015L213.308 199.308L212.601 198.601ZM199.414 199.308L206.361 192.361L204.947 190.947L198 197.894L199.414 199.308ZM197.293 198.601L198 199.308L199.414 197.894L198.707 197.187L197.293 198.601ZM204.24 190.24L197.293 197.187L198.707 198.601L205.654 191.654L204.24 190.24ZM205.654 190.24L199.414 184L198 185.414L204.24 191.654L205.654 190.24ZM199.414 185.414L200.121 184.707L198.707 183.293L198 184L199.414 185.414ZM198.707 184.707L204.947 190.947L206.361 189.533L200.121 183.293L198.707 184.707ZM211.187 183.293L204.947 189.533L206.361 190.947L212.601 184.707L211.187 183.293ZM213.308 184L212.601 183.293L211.187 184.707L211.894 185.414L213.308 184ZM207.068 191.654L213.308 185.414L211.894 184L205.654 190.24L207.068 191.654ZM205.654 191.654L212.601 198.601L214.015 197.187L207.068 190.24L205.654 191.654ZM212.601 197.187L211.894 197.894L213.308 199.308L214.015 198.601L212.601 197.187ZM213.308 197.894L206.361 190.947L204.947 192.361L211.894 199.308L213.308 197.894Z" fill="#eee"/>
<circle cx="44" cy="46" r="31" stroke="#eee" stroke-width="4"/>
<circle cx="153" cy="131" r="23" stroke="#eee" stroke-width="4"/>
<circle cx="256" cy="195" r="9.5" stroke="#eee" stroke-width="3"/>
<circle cx="28" cy="169" r="15.5" stroke="#eee" stroke-width="3"/>
<circle cx="163" cy="208" r="9.5" stroke="#eee" stroke-width="3"/>
<circle cx="110.145" cy="255" r="18" stroke="#eee" stroke-width="4"/>
<circle cx="240" cy="49" r="21" stroke="#eee" stroke-width="4"/>
<circle cx="183" cy="76" r="12" stroke="#eee" stroke-width="4"/>
</svg>
